<?xml version="1.0" encoding="UTF-8" standalone="no"?>
<!-- Created with Inkscape (http://www.inkscape.org/) -->

<svg
   width="1e3"
   height="1e3"
   version="1.1"
   viewBox="0 0 264.58 264.58"
   id="svg132"
   sodipodi:docname="Soldier_Active_5.svg"
   inkscape:export-filename="D:\UnityProjects\Skill - Ninja\Assets\Resources\Soldier\Soldier_Active_1.png"
   inkscape:export-xdpi="96"
   inkscape:export-ydpi="96"
   inkscape:version="1.1.1 (3bf5ae0d25, 2021-09-20)"
   xmlns:inkscape="http://www.inkscape.org/namespaces/inkscape"
   xmlns:sodipodi="http://sodipodi.sourceforge.net/DTD/sodipodi-0.dtd"
   xmlns:xlink="http://www.w3.org/1999/xlink"
   xmlns="http://www.w3.org/2000/svg"
   xmlns:svg="http://www.w3.org/2000/svg">
  <sodipodi:namedview
     id="namedview134"
     pagecolor="#ffffff"
     bordercolor="#666666"
     borderopacity="1.0"
     inkscape:pageshadow="2"
     inkscape:pageopacity="0.0"
     inkscape:pagecheckerboard="0"
     showgrid="false"
     inkscape:zoom="0.58831284"
     inkscape:cx="441.94174"
     inkscape:cy="464.88871"
     inkscape:window-width="1920"
     inkscape:window-height="1017"
     inkscape:window-x="1912"
     inkscape:window-y="-8"
     inkscape:window-maximized="1"
     inkscape:current-layer="svg132" />
  <defs
     id="defs54">
    <linearGradient
       id="linearGradient14376">
      <stop
         stop-color="#429f00"
         offset="0"
         id="stop2" />
      <stop
         stop-color="#360"
         offset="1"
         id="stop4" />
    </linearGradient>
    <linearGradient
       id="linearGradient8920">
      <stop
         stop-color="#112b00"
         offset="0"
         id="stop7" />
      <stop
         stop-color="#250"
         offset="1"
         id="stop9" />
    </linearGradient>
    <linearGradient
       id="linearGradient43665"
       x1="102.8"
       x2="167.87"
       y1="248.73"
       y2="210.18"
       gradientTransform="translate(-6.4287 -.12862)"
       gradientUnits="userSpaceOnUse"
       xlink:href="#linearGradient43305" />
    <linearGradient
       id="linearGradient43305">
      <stop
         stop-color="#800000"
         offset="0"
         id="stop13" />
      <stop
         stop-color="#b40000"
         offset="1"
         id="stop15" />
    </linearGradient>
    <linearGradient
       id="linearGradient43307"
       x1="124.87"
       x2="155.21"
       y1="84.894"
       y2="38.131"
       gradientTransform="translate(-6.4287 -.12862)"
       gradientUnits="userSpaceOnUse"
       xlink:href="#linearGradient43305" />
    <linearGradient
       id="linearGradient58947"
       x1="204.92"
       x2="251.83"
       y1="54.685"
       y2="47.87"
       gradientTransform="translate(-7.0597 -3.0317)"
       gradientUnits="userSpaceOnUse"
       xlink:href="#linearGradient43305" />
    <linearGradient
       id="linearGradient57449"
       x1="207.65"
       x2="223.33"
       y1="38.796"
       y2="18.037"
       gradientTransform="translate(-7.0597 -3.0317)"
       gradientUnits="userSpaceOnUse"
       xlink:href="#linearGradient43305" />
    <linearGradient
       id="linearGradient42579"
       x1="101.8"
       x2="164.98"
       y1="237.29"
       y2="134.72"
       gradientTransform="translate(-7.0597 -3.0317)"
       gradientUnits="userSpaceOnUse">
      <stop
         stop-color="#00008c"
         offset="0"
         id="stop21" />
      <stop
         stop-color="#0000be"
         offset="1"
         id="stop23" />
    </linearGradient>
    <linearGradient
       id="linearGradient39456"
       x1="494.66"
       x2="494.66"
       y1="584.47"
       y2="350.75"
       gradientTransform="matrix(.28795 0 0 .28795 -11.3 -25.705)"
       gradientUnits="userSpaceOnUse">
      <stop
         stop-color="#e0ac69"
         offset="0"
         id="stop26" />
      <stop
         stop-color="#ffc99b"
         offset="1"
         id="stop28" />
    </linearGradient>
    <linearGradient
       id="linearGradient38060"
       x1="350"
       x2="614.06"
       y1="756.35"
       y2="99.643"
       gradientTransform="matrix(.28795 0 0 .28795 -11.3 -25.704)"
       gradientUnits="userSpaceOnUse">
      <stop
         stop-color="#00007c"
         offset="0"
         id="stop31" />
      <stop
         stop-color="#0000be"
         offset="1"
         id="stop33" />
    </linearGradient>
    <linearGradient
       id="linearGradient1320"
       x1="132.21"
       x2="132.21"
       y1="129.78"
       y2="87.096"
       gradientTransform="matrix(0.99413,0,0,0.99413,2.2671,-0.37353)"
       gradientUnits="userSpaceOnUse"
       xlink:href="#linearGradient39456" />
    <linearGradient
       id="linearGradient5414"
       x1="499.54"
       x2="499.54"
       y1="-28.781"
       y2="275.25"
       gradientTransform="matrix(0.26458,0,0,0.26458,-8.546,6.7399)"
       gradientUnits="userSpaceOnUse"
       xlink:href="#linearGradient14376" />
    <linearGradient
       id="linearGradient8922"
       x1="49.024"
       x2="202.66"
       y1="30.263"
       y2="23.308"
       gradientUnits="userSpaceOnUse"
       xlink:href="#linearGradient8920" />
    <linearGradient
       id="linearGradient11046"
       x1="127.28"
       x2="127.28"
       y1="130.04"
       y2="191.84"
       gradientTransform="matrix(1.0081,0,0,1.0323,0.45101,-6.3201)"
       gradientUnits="userSpaceOnUse"
       xlink:href="#linearGradient14376" />
    <linearGradient
       id="linearGradient12567"
       x1="135.24"
       x2="135.24"
       y1="142.36"
       y2="247.25"
       gradientTransform="translate(-2.3082 -.027483)"
       gradientUnits="userSpaceOnUse"
       xlink:href="#linearGradient14376" />
    <linearGradient
       id="linearGradient13718"
       x1="504.12"
       x2="504.12"
       y1="981.58"
       y2="766.19"
       gradientTransform="scale(.26458)"
       gradientUnits="userSpaceOnUse"
       xlink:href="#linearGradient8920" />
    <linearGradient
       id="linearGradient1621"
       x1="56.413"
       x2="56.413"
       y1="217.87"
       y2="179.3"
       gradientTransform="matrix(1.193,0,0,1.176,-3.2917,-31.489)"
       gradientUnits="userSpaceOnUse"
       xlink:href="#linearGradient39456" />
    <linearGradient
       id="linearGradient2022"
       x1="56.413"
       x2="56.413"
       y1="217.87"
       y2="179.3"
       gradientTransform="matrix(1.193,0,0,1.176,124.55,-10.501)"
       gradientUnits="userSpaceOnUse"
       xlink:href="#linearGradient39456" />
    <linearGradient
       id="linearGradient2085"
       x1="31.06"
       x2="223.66"
       y1="183.49"
       y2="183.49"
       gradientTransform="matrix(1.1014,0,0,0.66164,30.95,63.25)"
       gradientUnits="userSpaceOnUse">
      <stop
         stop-color="#520"
         offset="0"
         id="stop44" />
      <stop
         stop-color="#803300"
         offset="1"
         id="stop46" />
    </linearGradient>
    <linearGradient
       id="linearGradient3069"
       x1="30.081"
       x2="17.448"
       y1="184.63"
       y2="202.67"
       gradientTransform="rotate(-35,33.394,190.41)"
       gradientUnits="userSpaceOnUse">
      <stop
         stop-color="#8f9194"
         offset="0"
         id="stop49" />
      <stop
         stop-color="#67696c"
         offset="1"
         id="stop51" />
    </linearGradient>
  </defs>
  <g
     display="none"
     id="g92">
    <g
       fill-rule="evenodd"
       id="g78">
      <path
         d="m201.72 39.223c8.1932-8.6844 49.744 0.39376 49.744 0.39376s-44.044 1.1804-35.538 19.035c7.0768 14.856-6.0124 9.2094-14.205 0.52501-4.4372-4.7032-4.4372-15.25 0-19.953z"
         fill="url(#linearGradient58947)"
         stroke="#000"
         stroke-width="2.1167"
         style="paint-order:stroke markers fill"
         id="path56" />
      <path
         d="m200.59 35.765c17.359-1.3934 31.584-37.303 31.584-37.303s-6.2906 40.078-19.157 49.119c-24.631 23.646-30.401-8.4577-12.427-11.814z"
         fill="url(#linearGradient57449)"
         stroke="#000"
         stroke-width="2.1167"
         style="paint-order:stroke markers fill"
         id="path58" />
      <ellipse
         cx="129.29"
         cy="178.08"
         rx="75.389"
         ry="80.64"
         fill="url(#linearGradient42579)"
         stroke="#000001"
         stroke-width="2.3036"
         style="paint-order:stroke markers fill"
         id="ellipse60" />
      <g
         stroke="#000"
         id="g70">
        <path
           d="m214.35 50.03a96.932 96.932 0 0 0-1.334-2.4504c-1.4043 0.49498-2.7775 0.98269-4.2913 1.5039-2.3032 0.79307-4.7246 1.6126-7.2406 2.4442-1.2579 0.41582-2.5394 0.83429-3.8413 1.2547-1.3019 0.42046-2.6241 0.84257-3.964 1.2643-1.3398 0.42174-2.697 0.84349-4.0686 1.2632-1.3715 0.4197-2.7574 0.83764-4.1546 1.2519-1.3972 0.41431-2.8059 0.82501-4.2226 1.2306-1.4167 0.40556-2.8414 0.80559-4.2716 1.1991-1.4301 0.39348-2.8656 0.78053-4.303 1.1586-1.4374 0.37805-2.8768 0.74755-4.3154 1.1068-1.4386 0.35929-2.8761 0.70835-4.3099 1.0455-1.4336 0.33718-2.863 0.66238-4.2856 0.97411s-2.838 0.60962-4.2435 0.89256c-1.4054 0.28293-2.8011 0.55065-4.1832 0.80144-1.3821 0.2508-2.7507 0.4849-4.1034 0.70021-1.3527 0.21532-2.6894 0.4118-4.0066 0.58829-0.65859 0.08825-1.312 0.1718-1.9606 0.24971-0.64856 0.07791-1.2924 0.15049-1.9302 0.21765-0.63779 0.06717-1.2697 0.12904-1.8959 0.18503-0.62623 0.056-1.2466 0.10575-1.8605 0.15016-0.61389 0.04441-1.2214 0.08345-1.8222 0.11586-0.60082 0.03241-1.1948 0.05819-1.7817 0.07817-0.58697 0.01999-1.1666 0.03391-1.739 0.04106-0.57236 0.0071-1.1376 0.0078-1.6946 0.0017-0.4891-0.0054-0.98499-0.01709-1.4876-0.03487s-1.0121-0.04163-1.5275-0.07143c-0.51541-0.0298-1.037-0.06544-1.5646-0.10686-0.52758-0.04142-1.061-0.08852-1.6001-0.14117-0.53906-0.05265-1.0834-0.11087-1.6332-0.17435-0.54987-0.06348-1.1053-0.1325-1.6653-0.2064-1.12-0.14782-2.2596-0.31619-3.4161-0.50337-1.1565-0.18717-2.3296-0.39306-3.5173-0.61641-1.1877-0.22334-2.3899-0.46412-3.6034-0.72046s-2.4386-0.52822-3.6725-0.81438c-1.2339-0.28615-2.4764-0.58649-3.7254-0.8993s-2.5044-0.63782-3.7631-0.97411c-1.2587-0.33628-2.5209-0.68389-3.7839-1.0405-1.263-0.35658-2.5265-0.72244-3.7884-1.0961-1.2619-0.37371-2.5222-0.75517-3.7777-1.1428-1.2555-0.38766-2.5064-0.78151-3.7502-1.1799-1.2438-0.39844-2.4802-0.80147-3.7069-1.2075-1.2266-0.40604-2.4437-0.81504-3.6478-1.2255s-2.3957-0.82223-3.5719-1.2339c-1.1762-0.41172-2.3367-0.82359-3.4796-1.2334-1.1429-0.4098-2.2679-0.81743-3.3722-1.2221-2.2087-0.8094-4.3351-1.6057-6.357-2.3756-2.022-0.76996-3.9398-1.5136-5.7322-2.2187-1.6057-0.63171-3.0735-1.2203-4.4606-1.78-0.05686 1.793-0.10403 3.7261-0.12992 5.7969-0.02671 2.1363-0.03228 4.4047-0.0073 6.7721 0.02496 2.3674 0.08039 4.834 0.17603 7.3671 0.09565 2.5332 0.23141 5.1329 0.41676 7.7664 0.18534 2.6335 0.42024 5.301 0.71427 7.9695s0.64742 5.3382 1.0691 7.9762c0.21087 1.319 0.43866 2.6304 0.68503 3.9296 0.24635 1.2991 0.51104 2.5859 0.79526 3.857s0.58835 2.5265 0.91281 3.7614 0.66946 2.4494 1.0365 3.64c0.36708 1.1905 0.75607 2.3569 1.1681 3.4948 0.41208 1.138 0.84706 2.2478 1.3065 3.325s0.94354 2.1221 1.4527 3.1304c0.50919 1.0083 1.0438 1.9798 1.6051 2.911 0.56131 0.93125 1.1491 1.8221 1.7648 2.6681 0.6158 0.84599 1.2592 1.6472 1.9319 2.3998 0.67267 0.75257 1.3743 1.4564 2.1062 2.1074 0.73192 0.65097 1.4944 1.249 2.2879 1.7902 1.0317 0.70363 2.0914 1.3806 3.1765 2.0314 1.0851 0.65083 2.1954 1.2759 3.3272 1.8756 1.1318 0.59977 2.2854 1.1739 3.4571 1.7244 1.1718 0.55043 2.3619 1.077 3.5668 1.5798 1.2049 0.50282 2.4249 0.98231 3.6562 1.4392 1.2314 0.45694 2.4744 0.89091 3.7254 1.3037 1.251 0.41277 2.5098 0.80399 3.7738 1.1743 1.264 0.37033 2.5329 0.71983 3.803 1.0495 2.5402 0.65928 5.0858 1.2389 7.6101 1.7457 2.5243 0.50684 5.027 0.94107 7.4813 1.3093 2.4543 0.36825 4.8603 0.67049 7.1905 0.91394 2.3303 0.24344 4.5856 0.42825 6.7378 0.56072 1.2403 0.0763 2.5118 0.12026 3.8115 0.13273 1.2997 0.0125 2.6274-7e-3 3.9802-0.0562 1.3528-0.0494 2.7307-0.12875 4.1304-0.2379s2.8211-0.24759 4.2614-0.41449c1.4402-0.16692 2.8993-0.3623 4.374-0.58492 1.4745-0.22262 2.9647-0.47285 4.4672-0.74914 1.5026-0.2763 3.0177-0.57868 4.5421-0.90662 1.5243-0.32795 3.0579-0.68149 4.5978-1.059 1.5398-0.37752 3.0853-0.77903 4.6344-1.2041 1.549-0.42511 3.1009-0.87354 4.6528-1.3442 1.5519-0.47063 3.1037-0.96334 4.6524-1.4774 1.5486-0.51407 3.0942-1.0496 4.6332-1.6051 1.5389-0.55557 3.0714-1.1316 4.5944-1.7266 1.523-0.59499 3.0362-1.209 4.5371-1.8413 1.5008-0.63237 2.9893-1.2828 4.4616-1.9504 1.4723-0.66771 2.9284-1.3529 4.3661-2.0539 0.93867-0.45772 1.8356-0.97759 2.6917-1.5551 0.85606-0.5775 1.6713-1.2123 2.4482-1.901 0.7769-0.68862 1.5153-1.431 2.2165-2.2221 0.70117-0.7911 1.3654-1.6307 1.9943-2.5157 0.62891-0.88501 1.2223-1.815 1.7823-2.7851 0.56-0.97011 1.0864-1.9803 1.5809-3.0269 0.49458-1.0466 0.95713-2.1295 1.3897-3.244 0.4326-1.1145 0.83515-2.2609 1.2092-3.4346s0.71984-2.3751 1.0388-3.5994c0.31895-1.2243 0.61123-2.4716 0.8785-3.7378 0.26728-1.2662 0.5093-2.5513 0.72833-3.8508 0.21904-1.2995 0.41519-2.6133 0.58942-3.9374s0.32662-2.6586 0.4595-3.9988c0.13287-1.3401 0.24587-2.6856 0.34082-4.0331 0.18988-2.6948 0.30732-5.3957 0.36614-8.0679 0.0588-2.6722 0.0594-5.3159 0.0146-7.8964-0.0448-2.5804-0.13504-5.0979-0.25591-7.5173-0.12086-2.4194-0.27259-4.741-0.44205-6.9301-0.03-0.38788-0.0657-0.70779-0.0967-1.0871z"
           fill="url(#linearGradient39456)"
           stroke-width="1.1518"
           style="paint-order:stroke markers fill"
           id="path62" />
        <path
           d="m129.47-0.2247c-33.229 0.027255-64.13 17.075-81.875 45.17-9.8118 15.483-15.033 33.43-15.056 51.76-3.2e-5 53.533 43.397 96.933 96.933 96.933 53.533-2.6e-4 96.93-43.397 96.93-96.933-0.0209-16.326-4.1648-32.382-12.047-46.678 0.031 0.37936 0.0666 0.6994 0.0966 1.0873 0.16946 2.1892 0.32149 4.5104 0.44235 6.9297 0.12087 2.4194 0.21102 4.9369 0.2558 7.5173 0.0448 2.5804 0.0443 5.2239-0.0145 7.8962s-0.1765 5.3729-0.3664 8.0677c-0.0949 1.3474-0.20767 2.6932-0.34054 4.0333s-0.28517 2.6747-0.4594 3.9986-0.3706 2.6377-0.58962 3.9373c-0.21903 1.2995-0.46085 2.5847-0.72814 3.851-0.26728 1.2662-0.55956 2.5135-0.87849 3.7378s-0.66464 2.4255-1.0387 3.5994c-0.37405 1.1737-0.77664 2.3204-1.2092 3.4348-0.43259 1.1145-0.89551 2.1971-1.3901 3.2438-0.49459 1.0466-1.0208 2.0571-1.5808 3.0271-0.55999 0.97009-1.1534 1.8999-1.7823 2.7847-0.62886 0.88492-1.293 1.7245-1.9942 2.5156-0.70114 0.79111-1.4395 1.5335-2.2164 2.2221-0.77687 0.68861-1.5924 1.3237-2.4484 1.9012-0.85606 0.57748-1.7526 1.0972-2.6913 1.555-1.4376 0.70098-2.8938 1.3864-4.3662 2.0541-1.4723 0.66771-2.961 1.3179-4.4617 1.9503-1.5008 0.63236-3.0141 1.2462-4.5371 1.8412-1.523 0.59499-3.0551 1.1709-4.594 1.7265-1.5389 0.55557-3.0848 1.091-4.6334 1.6051-1.1623 0.38589-4.826 0.0335-5.9907 0.39502-4.3786-0.83809-6.6011-1.096-10.46-2.6564-11.507-4.6535-14.059-7.5478-22.697-7.5478-9.1562 0-22.294 2.7866-29.938 6.549-4.0185 1.978-8.1444 2.2767-12.972 3.673-0.69832-0.24246-5.6782-0.3116-6.3698-0.56825-1.2314-0.45691-2.4512-0.93638-3.656-1.4392-1.2049-0.50279-2.395-1.0293-3.5666-1.5798-1.1718-0.55041-2.3253-1.1247-3.457-1.7244-1.1318-0.59976-2.2423-1.225-3.3274-1.8758-1.0851-0.65082-2.1449-1.3278-3.1766-2.0314-0.79354-0.54118-1.5558-1.1391-2.2877-1.7901-0.73192-0.65098-1.4337-1.3548-2.1063-2.1074-0.67265-0.75258-1.3159-1.5539-1.9317-2.3998s-1.2035-1.7368-1.7647-2.668c-0.56129-0.93123-1.0959-1.9026-1.6051-2.911-0.50916-1.0083-0.99372-2.0533-1.4531-3.1306-0.45942-1.0772-0.89432-2.1869-1.3064-3.3248-0.41206-1.1378-0.80082-2.3044-1.1679-3.4949s-0.71218-2.4047-1.0366-3.6396c-0.32439-1.2349-0.62832-2.4904-0.91253-3.7616-0.28422-1.2711-0.54896-2.558-0.79528-3.8571s-0.47437-2.6105-0.68522-3.9296c-0.42172-2.638-0.77515-5.3078-1.0692-7.9761-0.29403-2.6686-0.52882-5.3361-0.71416-7.9695-0.18534-2.6335-0.32086-5.2327-0.41651-7.766-0.09565-2.5331-0.15126-4.9996-0.17622-7.3671-0.02498-2.3674-0.01947-4.6358 0.0072-6.7723 0.0259-2.0706 0.07285-4.0034 0.12971-5.7965 1.3869 0.55978 2.8549 1.148 4.4606 1.7797 1.7923 0.70512 3.71 1.449 5.7319 2.219 2.022 0.76994 4.1487 1.5662 6.3571 2.3756 1.1043 0.40471 2.2289 0.81235 3.3718 1.2221 1.1429 0.40979 2.3037 0.82129 3.4798 1.233 1.1762 0.41172 2.3678 0.82357 3.5719 1.234s2.4212 0.81973 3.6478 1.2258c1.2266 0.40603 2.463 0.80872 3.7068 1.2072 1.2438 0.39844 2.4946 0.79264 3.7502 1.1803 1.2555 0.38767 2.5156 0.76885 3.7775 1.1426 1.262 0.3737 2.5254 0.73948 3.7883 1.0961 1.263 0.35658 2.5256 0.70448 3.7843 1.0408 1.2587 0.33629 2.5141 0.6613 3.7632 0.97409 1.249 0.31282 2.4914 0.61301 3.7253 0.89916 1.2339 0.28617 2.4591 0.55809 3.6727 0.81441 1.2135 0.25634 2.4152 0.49705 3.6028 0.72038 1.1877 0.22334 2.3611 0.42934 3.5176 0.61651 1.1565 0.18716 2.2958 0.35549 3.4158 0.50332 0.55999 0.07391 1.1157 0.14271 1.6655 0.20619 0.54986 0.06348 1.0944 0.12202 1.6335 0.17467 0.53906 0.05265 1.0723 0.09965 1.5999 0.14108 0.52758 0.04142 1.0493 0.07717 1.5648 0.10697 0.51541 0.0298 1.0244 0.05353 1.527 0.07131s0.99867 0.02925 1.4878 0.03462c0.55698 0.0061 1.1221 0.0057 1.6945-0.0016 0.57234-0.0071 1.1519-0.02085 1.7389-0.04082 0.58697-0.01998 1.181-0.04615 1.7818-0.07855 0.60081-0.03241 1.2082-0.07134 1.8221-0.11576 0.61389-0.04441 1.2346-0.09386 1.8609-0.14986 0.62622-0.056 1.2577-0.11784 1.8955-0.185 0.63778-0.06717 1.2821-0.14016 1.9306-0.21808 0.64855-0.07792 1.3015-0.16134 1.9601-0.2496 1.3172-0.17649 2.6543-0.37277 4.0071-0.58806 1.3527-0.21532 2.721-0.44942 4.1032-0.70022 1.3821-0.25079 2.7779-0.51856 4.1833-0.8015 1.4054-0.28295 2.821-0.58073 4.2436-0.89244 1.4226-0.31173 2.8519-0.63693 4.2854-0.97409 1.4336-0.33718 2.8713-0.68612 4.3098-1.0454s2.8776-0.72885 4.3151-1.1069c1.4374-0.37806 2.8731-0.76512 4.3032-1.1586 1.4301-0.39349 2.8549-0.79386 4.2717-1.1994 1.4167-0.40555 2.8252-0.81613 4.2225-1.2304 1.3972-0.41428 2.7832-0.8319 4.1548-1.2516 1.3715-0.41968 2.7286-0.84174 4.0685-1.2635 1.3398-0.42175 2.6617-0.84354 3.9635-1.264 1.3019-0.42045 2.5837-0.83939 3.8418-1.2552 2.5158-0.83164 4.9371-1.6507 7.2403-2.4438 1.5137-0.5212 2.8869-1.0093 4.2913-1.5043-17.411-29.615-49.197-47.8-83.55-47.802z"
           fill="url(#linearGradient38060)"
           stroke-width="2.3036"
           style="paint-order:stroke markers fill"
           id="path64" />
        <path
           d="m80.729 61.655c11.027-9.3884 27.973-3.5836 31.592 10.439 3.7302 14.455 1.7489 31.281-1.6483 45.878-3.1968 13.735-33.395 12.886-38.46-0.27471-5.6302-14.631-5.4985-44.11 8.5162-56.042z"
           fill="#fefff0"
           stroke-width="1.1518"
           style="paint-order:stroke markers fill"
           id="path66" />
        <path
           d="m179.72 60.479c-11.027-9.3884-27.973-3.5836-31.592 10.439-3.7302 14.455-1.7489 31.281 1.6483 45.878 3.1968 13.735 33.395 12.886 38.46-0.27472 5.6302-14.631 5.4985-44.11-8.5162-56.042z"
           fill="#fefff0"
           stroke-width="1.1518"
           style="paint-order:stroke markers fill"
           id="path68" />
      </g>
      <path
         d="m106.35 102.19c0 12.441-6.5835 19.23-13.333 19.23-6.7498 0-12.758-10.085-12.758-22.526 1e-6 -12.441 9.7467-26.372 16.496-26.372 6.7498-3e-6 9.5949 17.228 9.5949 29.669z"
         fill="#0a0a0a"
         stroke="#fff"
         stroke-width=".29461"
         style="paint-order:stroke markers fill"
         id="path72" />
      <path
         d="m156.5 100.82c0 12.441 6.5835 19.23 13.333 19.23 6.7498 0 12.758-10.085 12.758-22.526s-9.7467-26.372-16.496-26.372c-6.7498-3e-6 -9.5949 17.228-9.5949 29.669z"
         fill="#0a0a0a"
         stroke="#fff"
         stroke-width=".29461"
         style="paint-order:stroke markers fill"
         id="path74" />
      <path
         d="m54.254 39.054c58.397 26.543 118.96 26.554 154.25 2.6864 6.2377 2.3164 12.568 15.452 8.2703 17.751-46.749 25.003-110.57 23.663-169.52-0.10673-6.9996-2.8225 0.35686-15.27 7.0035-20.33z"
         fill="url(#linearGradient43307)"
         stroke="#000"
         stroke-width="1.1518"
         style="paint-order:stroke markers fill"
         id="path76" />
    </g>
    <path
       d="m124.93 230.16s7.881-4.1543 13.069-11.683c5.3774-7.8034 6.0126-22.961 6.0126-22.961"
       fill="none"
       stroke="#000"
       stroke-width="1.0583"
       id="path80" />
    <g
       fill-rule="evenodd"
       id="g88">
      <path
         d="m197.33 219.13c-1.0056 2.4869-1.9051 3.86-3.6492 6.5637-36.343 9.0518-87.365 21.698-128.4-0.44625-2.1878-2.8672-2.7335-3.9742-3.7824-8.1373 33.975 19.73 102.37 11.942 135.83 2.0198z"
         fill="url(#linearGradient43665)"
         stroke="#000"
         stroke-width="1.0583"
         style="paint-order:stroke markers fill"
         id="path82" />
      <path
         d="m80.729 61.655 42.081 17.349 1.2621 12.747-54.144-20.572z"
         stroke="#fff"
         stroke-width=".26458"
         style="paint-order:stroke markers fill"
         id="path84" />
      <path
         d="m183.88 61.615-42.081 17.349-1.2621 12.747 54.144-20.572z"
         stroke="#fff"
         stroke-width=".26458"
         style="paint-order:stroke markers fill"
         id="path86" />
    </g>
    <path
       d="m124.85 197.08 10.533 9.0248c2.542 2.1779 3.2055 11.921 3.2055 11.921"
       fill="none"
       stroke="#000"
       stroke-width="1.0583"
       id="path90" />
  </g>
  <ellipse
     cx="134.04"
     cy="181.08"
     rx="75.389"
     ry="80.64"
     fill="url(#linearGradient12567)"
     fill-rule="evenodd"
     stroke="#000001"
     stroke-width="2.3036"
     style="paint-order:stroke markers fill"
     id="ellipse94" />
  <path
     d="m156.73 187.27c-3.2025 0.0744-8.3504 1.6996-9.386 3.9634-4.7452 10.375-9.69 19.407-15.08 28.178-5.0503-8.3221-9.7148-16.93-14.201-26.738-1.6567-3.6224-13.842-5.6096-11.74-2.2257 8.289 13.348 14.813 25.756 21.012 36.742-6.1436 9.4241-12.896 18.915-20.576 29.842-1.366 1.9432 4.9519 3.861 6.7442 2.3022 7.1534-6.2213 13.013-14.241 18.762-23.645 6.0327 10.029 12.121 18.547 19.638 25.084 1.7923 1.5588 8.1102-0.35893 6.7441-2.3022-8.0451-11.444-15.072-21.315-21.447-31.183 6.461-11.358 13.206-24.304 21.884-38.277 0.78802-1.2689-0.43339-1.7825-2.3549-1.7379z"
     fill="url(#linearGradient13718)"
     stroke="#000"
     stroke-linejoin="round"
     stroke-width="1.0583"
     id="path116" />
  <g
     id="g1039"
     transform="translate(0,10.58308)">
    <path
       d="m 131.39,1.8433 a 96.537,96.537 0 0 0 -95.873,96.977 96.537,96.537 0 0 0 1.4319,15.868 c 0.28141,0.0592 0.39608,0.086 0.68627,0.14676 1.8663,0.39094 3.9123,0.81467 6.1118,1.2624 2.1993,0.44775 4.5518,0.91947 7.0304,1.4076 2.4786,0.48817 5.0839,0.99254 7.7887,1.5048 2.7048,0.51225 5.5088,1.0324 8.3859,1.5523 2.8773,0.51993 5.8274,1.0395 8.8237,1.5508 2.9964,0.51125 6.0388,1.0145 9.1005,1.5007 1.5309,0.24309 3.067,0.48196 4.6042,0.71572 1.5373,0.23375 3.076,0.46233 4.6132,0.68471 1.537,0.22236 3.0723,0.43856 4.6024,0.6475 1.53,0.20894 3.0548,0.41063 4.5711,0.60409 1.5163,0.19346 3.0242,0.37854 4.5201,0.55448 1.496,0.17594 2.98,0.34282 4.4486,0.49918 1.4689,0.15638 2.9226,0.30242 4.3579,0.43717 1.4353,0.13475 2.8519,0.25787 4.2468,0.36896 1.3948,0.11109 2.7678,0.2102 4.1156,0.29559 1.3478,0.0854 2.6701,0.15734 3.9639,0.21497 1.2938,0.0576 2.5596,0.10085 3.793,0.12867 1.2335,0.0278 2.435,0.0402 3.6012,0.0362 1.2041,-0.004 2.4444,-0.0255 3.7176,-0.063 1.2732,-0.0375 2.579,-0.0915 3.9145,-0.1602 1.3354,-0.0687 2.7003,-0.15235 4.0912,-0.25011 1.3907,-0.0977 2.8074,-0.2097 4.2468,-0.33435 1.4392,-0.12463 2.9008,-0.26199 4.3817,-0.41134 1.4807,-0.14935 2.9805,-0.31075 4.4957,-0.48265 1.5154,-0.17191 3.0466,-0.35443 4.5899,-0.54673 1.5432,-0.1923 3.0982,-0.39406 4.6622,-0.60461 1.5641,-0.21055 3.1374,-0.42968 4.7153,-0.65629 1.5781,-0.22662 3.1612,-0.46072 4.7463,-0.70125 1.5852,-0.24053 3.1723,-0.4877 4.7577,-0.74 1.5854,-0.2523 3.1691,-0.50964 4.7479,-0.77152 3.1575,-0.52376 6.2952,-1.0647 9.3849,-1.6138 3.0898,-0.54916 6.1319,-1.1067 9.0986,-1.664 2.9667,-0.55728 5.8583,-1.1143 8.647,-1.6624 2.7887,-0.54813 5.475,-1.0875 8.0305,-1.6092 0.82884,-0.1692 1.5502,-0.32261 2.3507,-0.48784 a 96.537,96.537 0 0 0 1.6975,-17.663 l -0.004,-0.88314 a 96.537,96.537 0 0 0 -97.196,-95.651 z"
       fill="url(#linearGradient1320)"
       stroke="#000000"
       stroke-linejoin="round"
       stroke-width="0.99998"
       id="path96"
       style="fill:url(#linearGradient1320)" />
    <g
       fill-rule="evenodd"
       id="g106">
      <path
         d="m 100.23,115.22 c -12.49,7.3312 -28.17,-1.3281 -29.299,-15.766 -1.1633,-14.884 3.7097,-31.11 9.5899,-44.895 5.5333,-12.972 35.125,-6.8917 37.828,6.949 3.0038,15.387 -2.2448,44.395 -18.118,53.712 z"
         fill="#fefff0"
         stroke="#000000"
         stroke-width="1.1518"
         style="paint-order:stroke markers fill"
         id="path98" />
      <path
         d="m 83.972,80.267 c 2.1604,-12.252 9.8227,-17.795 16.47,-16.623 6.6471,1.1721 10.813,12.147 8.6524,24.4 -2.1604,12.252 -14.178,24.28 -20.825,23.108 -6.6471,-1.1721 -6.4573,-18.633 -4.2968,-30.885 z"
         fill="#0a0a0a"
         stroke="#ffffff"
         stroke-width="0.29462"
         style="paint-order:stroke markers fill"
         id="path100" />
      <path
         d="m 169.99,115.23 c 12.49,7.3312 28.17,-1.3281 29.299,-15.766 1.1633,-14.884 -3.7097,-31.11 -9.5899,-44.895 -5.5333,-12.972 -35.125,-6.8917 -37.828,6.949 -3.0038,15.387 2.2448,44.395 18.118,53.712 z"
         fill="#fefff0"
         stroke="#000000"
         stroke-width="1.1517"
         style="paint-order:stroke markers fill"
         id="path102" />
      <path
         d="m 186.25,80.276 c -2.1604,-12.252 -9.8227,-17.795 -16.47,-16.623 -6.6471,1.1721 -10.813,12.147 -8.6524,24.4 2.1604,12.252 14.178,24.28 20.825,23.108 6.6471,-1.1721 6.4572,-18.633 4.2968,-30.885 z"
         fill="#0a0a0a"
         stroke="#ffffff"
         stroke-width="0.29462"
         style="paint-order:stroke markers fill"
         id="path104" />
    </g>
    <path
       d="m 129.35,0.75891 c -35.587,0.19144 -78.804,26.541 -78.889,39.465 -18.093,5.3744 -21.239,13.203 -39.8,32.266 -7.2492,7.4452 54.764,-7.4585 114.32,-7.478 59.554,-0.01949 134.47,20.088 129.59,13.106 -12.136,-17.336 -20.918,-35.22 -39.983,-41.735 0.3644,-0.63132 -0.0974,0.67806 0,0 -7.6309,-15.882 -26.086,-35.942 -85.232,-35.624 z"
       fill="url(#linearGradient5414)"
       stroke="#000000"
       stroke-linejoin="round"
       id="path108"
       style="fill:url(#linearGradient5414)" />
    <path
       d="m 55.942,29.523 c 51.062,-8.1175 93.73,-15.401 153.9,-2.5116 1.3275,0.28436 7.8694,9.8262 5.3168,9.435 -58.517,-8.9682 -101.02,-6.3808 -164.7,3.7774 -3.9581,0.63137 2.0571,-10.156 5.4842,-10.701 z"
       fill="url(#linearGradient8922)"
       stroke="#000000"
       stroke-linejoin="round"
       stroke-width="1.0583"
       id="path110"
       style="fill:url(#linearGradient8922)" />
    <path
       d="m 80.084,49.347 47.917,17.294 5.8706,13.911 -78.583,-23.036 z"
       fill-rule="evenodd"
       stroke="#ffffff"
       stroke-width="0.33077"
       style="paint-order:stroke markers fill"
       id="path112" />
    <path
       d="m 192.78,49.791 -47.917,17.294 -5.8706,13.911 78.583,-23.036 z"
       fill-rule="evenodd"
       stroke="#ffffff"
       stroke-width="0.33077"
       style="paint-order:stroke markers fill"
       id="path114" />
    <path
       d="m 228.22,114.56 c -0.8117,0.17154 -1.5432,0.33083 -2.3837,0.50652 -2.5914,0.54168 -5.3152,1.1017 -8.143,1.6709 -2.8278,0.56913 -5.7598,1.1475 -8.7681,1.7261 -3.0084,0.57865 -6.0931,1.1575 -9.2261,1.7278 -3.133,0.57022 -6.3145,1.1319 -9.5164,1.6757 -1.601,0.27192 -3.2069,0.53914 -4.8145,0.80109 -1.6077,0.26196 -3.2171,0.51862 -4.8245,0.76837 -1.6074,0.24975 -3.2128,0.49281 -4.813,0.72813 -1.6002,0.2353 -3.1955,0.46282 -4.7815,0.68143 -1.586,0.21861 -3.1627,0.4281 -4.7276,0.62779 -1.5648,0.19967 -3.1175,0.38918 -4.6542,0.56768 -1.5366,0.1785 -3.0573,0.34608 -4.5588,0.50116 -1.5015,0.15508 -2.9837,0.2977 -4.443,0.4271 -1.4594,0.12942 -2.896,0.24566 -4.3062,0.34716 -1.4102,0.10154 -2.7944,0.18835 -4.1485,0.2597 -1.3541,0.0713 -2.6783,0.12738 -3.9693,0.16634 -1.2911,0.039 -2.5487,0.0611 -3.7697,0.0654 -1.1827,0.004 -2.401,-0.009 -3.6518,-0.0375 -1.2507,-0.0289 -2.5341,-0.0738 -3.8462,-0.13361 -1.3121,-0.0598 -2.653,-0.13455 -4.0196,-0.22321 -1.3666,-0.0886 -2.7588,-0.19156 -4.1732,-0.30691 -1.4144,-0.11536 -2.8509,-0.24319 -4.3062,-0.38311 -1.4553,-0.13992 -2.9294,-0.29158 -4.4189,-0.45394 -1.4895,-0.16237 -2.9942,-0.33564 -4.5111,-0.51832 -1.517,-0.1827 -3.0459,-0.37486 -4.5835,-0.57574 -1.5376,-0.20088 -3.0839,-0.4103 -4.6353,-0.62725 -1.5515,-0.21695 -3.1082,-0.44142 -4.6668,-0.67231 -1.5586,-0.2309 -3.1189,-0.46825 -4.6778,-0.71095 -1.5589,-0.24272 -3.1165,-0.49074 -4.6689,-0.74316 -3.1048,-0.50481 -6.1899,-1.0273 -9.2282,-1.5582 -3.0383,-0.53085 -6.0298,-1.0704 -8.9473,-1.6102 -2.9176,-0.53987 -5.7609,-1.08 -8.5035,-1.6119 -2.7426,-0.53188 -5.3843,-1.0556 -7.8978,-1.5625 -2.5135,-0.5069 -4.8989,-0.99668 -7.1291,-1.4616 -2.2301,-0.46493 -4.3049,-0.9049 -6.1974,-1.3108 -0.29426,-0.0631 -0.41053,-0.0909 -0.69588,-0.15238 a 97.891,100.24 0 0 0 96.661,83.303 97.891,100.24 0 0 0 95.945,-81.897 z"
       fill="url(#linearGradient11046)"
       stroke="#000000"
       stroke-linejoin="round"
       stroke-width="1.0261"
       id="path118"
       style="fill:url(#linearGradient11046)" />
  </g>
  <g
     fill-rule="evenodd"
     stroke="#000000"
     id="g130"
     transform="translate(0,-10.583176)"
     inkscape:export-filename="D:\UnityProjects\Skill - Ninja\Assets\Resources\Soldier\Soldier_Active_4.png"
     inkscape:export-xdpi="96"
     inkscape:export-ydpi="96">
    <g
       id="g126">
      <rect
         transform="rotate(11)"
         x="66.325996"
         y="180.87"
         width="209.81"
         height="7.5746002"
         fill="url(#linearGradient2085)"
         stroke-width="1.8069"
         style="fill:url(#linearGradient2085);paint-order:stroke markers fill"
         id="rect120" />
      <ellipse
         cx="64.237"
         cy="202.25"
         rx="22.382999"
         ry="22.065001"
         fill="url(#linearGradient1621)"
         stroke-width="2.5071"
         style="fill:url(#linearGradient1621);paint-order:stroke markers fill"
         id="ellipse122" />
      <ellipse
         cx="192.07001"
         cy="223.24001"
         rx="22.382999"
         ry="22.065001"
         fill="url(#linearGradient2022)"
         stroke-width="2.5071"
         style="fill:url(#linearGradient2022);paint-order:stroke markers fill"
         id="ellipse124" />
    </g>
    <path
       d="M 16.369,190.78 37.73,175.823 31.3263,212.14 Z"
       fill="url(#linearGradient3069)"
       stroke-width="2.1166"
       style="fill:url(#linearGradient3069);paint-order:stroke markers fill"
       id="path128" />
  </g>
</svg>
