<?xml version="1.0" encoding="UTF-8"?>
<!-- Created with Inkscape (http://www.inkscape.org/) -->
<svg width="1e3" height="1e3" version="1.1" viewBox="0 0 264.58 264.58" xmlns="http://www.w3.org/2000/svg" xmlns:xlink="http://www.w3.org/1999/xlink">
 <defs>
  <linearGradient id="linearGradient43305">
   <stop stop-color="#800000" offset="0"/>
   <stop stop-color="#b40000" offset="1"/>
  </linearGradient>
  <linearGradient id="linearGradient38060" x1="350" x2="614.06" y1="756.35" y2="99.643" gradientTransform="matrix(1.0883 0 0 1.0883 -16.027 -85.692)" gradientUnits="userSpaceOnUse">
   <stop stop-color="#00007c" offset="0"/>
   <stop stop-color="#0000be" offset="1"/>
  </linearGradient>
  <linearGradient id="linearGradient39456" x1="494.66" x2="494.66" y1="584.47" y2="350.75" gradientTransform="matrix(.28795 0 0 .28795 -4.2406 -22.673)" gradientUnits="userSpaceOnUse">
   <stop stop-color="#e0ac69" offset="0"/>
   <stop stop-color="#ffc99b" offset="1"/>
  </linearGradient>
  <linearGradient id="linearGradient42579" x1="101.8" x2="164.98" y1="237.29" y2="134.72" gradientUnits="userSpaceOnUse">
   <stop stop-color="#00008c" offset="0"/>
   <stop stop-color="#0000be" offset="1"/>
  </linearGradient>
  <linearGradient id="linearGradient43307" x1="124.87" x2="155.21" y1="84.894" y2="38.131" gradientUnits="userSpaceOnUse" xlink:href="#linearGradient43305"/>
  <linearGradient id="linearGradient43665" x1="102.8" x2="167.87" y1="248.73" y2="210.18" gradientUnits="userSpaceOnUse" xlink:href="#linearGradient43305"/>
  <linearGradient id="linearGradient57449" x1="207.65" x2="223.33" y1="38.796" y2="18.037" gradientUnits="userSpaceOnUse" xlink:href="#linearGradient43305"/>
  <linearGradient id="linearGradient58947" x1="204.92" x2="251.83" y1="54.685" y2="47.87" gradientUnits="userSpaceOnUse" xlink:href="#linearGradient43305"/>
 </defs>
 <g fill-rule="evenodd">
  <path d="m208.78 42.254c8.1931-8.6843 49.743 0.39375 49.743 0.39375s-44.043 1.1804-35.538 19.035c7.0767 14.856-6.0123 9.2093-14.205 0.525-4.4371-4.7031-4.4371-15.25 0-19.953z" fill="url(#linearGradient58947)" stroke="#000" stroke-width="2.1167" style="paint-order:stroke markers fill"/>
  <path d="m207.65 38.796c17.359-1.3934 31.584-37.303 31.584-37.303s-6.2905 40.077-19.157 49.118c-24.631 23.646-30.401-8.4576-12.427-11.814z" fill="url(#linearGradient57449)" stroke="#000" stroke-width="2.1167" style="paint-order:stroke markers fill"/>
  <ellipse cx="136.35" cy="181.11" rx="75.388" ry="80.639" fill="url(#linearGradient42579)" stroke="#000001" stroke-width="2.3036" style="paint-order:stroke markers fill"/>
  <g stroke="#000">
   <path d="m221.41 53.061a96.931 96.931 0 0 0-1.334-2.4504c-1.4043 0.49497-2.7775 0.98268-4.2912 1.5039-2.3032 0.79306-4.7246 1.6126-7.2405 2.4442-1.2579 0.41582-2.5394 0.83428-3.8413 1.2547-1.3019 0.42045-2.6241 0.84256-3.9639 1.2643-1.3398 0.42174-2.697 0.84348-4.0685 1.2632-1.3715 0.41969-2.7574 0.83763-4.1545 1.2519-1.3972 0.4143-2.8059 0.825-4.2226 1.2306-1.4167 0.40556-2.8414 0.80558-4.2715 1.1991-1.4301 0.39348-2.8656 0.78052-4.303 1.1586-1.4374 0.37805-2.8768 0.74754-4.3154 1.1068-1.4386 0.35929-2.8761 0.70834-4.3098 1.0455-1.4336 0.33718-2.863 0.66237-4.2856 0.9741-1.4226 0.31173-2.838 0.60961-4.2434 0.89255-1.4054 0.28293-2.8011 0.55064-4.1832 0.80143-1.3821 0.2508-2.7507 0.48489-4.1034 0.7002-1.3527 0.21532-2.6894 0.41179-4.0066 0.58828-0.65858 0.08825-1.312 0.1718-1.9606 0.24971-0.64856 0.07791-1.2924 0.15049-1.9302 0.21765-0.63778 0.06717-1.2697 0.12904-1.8959 0.18503-0.62622 0.056-1.2466 0.10575-1.8605 0.15016-0.61389 0.04441-1.2214 0.08345-1.8222 0.11586-0.60081 0.03241-1.1948 0.05819-1.7817 0.07817-0.58696 0.01999-1.1666 0.03391-1.739 0.04106-0.57235 0.0071-1.1376 0.0078-1.6946 0.0017-0.4891-0.0054-0.98498-0.01709-1.4876-0.03487-0.5026-0.01778-1.0121-0.04163-1.5275-0.07143s-1.037-0.06544-1.5646-0.10686c-0.52757-0.04142-1.061-0.08852-1.6001-0.14117-0.53905-0.05265-1.0834-0.11087-1.6332-0.17435-0.54986-0.06348-1.1053-0.1325-1.6653-0.2064-1.12-0.14782-2.2596-0.31619-3.4161-0.50336-1.1565-0.18717-2.3296-0.39306-3.5173-0.6164-1.1877-0.22334-2.3899-0.46411-3.6034-0.72045-1.2135-0.25634-2.4386-0.52821-3.6725-0.81437-1.2339-0.28615-2.4764-0.58648-3.7254-0.89929-1.249-0.31281-2.5044-0.63781-3.7631-0.9741-1.2587-0.33628-2.5209-0.68388-3.7839-1.0405-1.263-0.35658-2.5265-0.72243-3.7884-1.0961-1.2619-0.37371-2.5222-0.75516-3.7777-1.1428-1.2555-0.38766-2.5064-0.7815-3.7502-1.1799-1.2438-0.39844-2.4802-0.80146-3.7069-1.2075-1.2266-0.40604-2.4437-0.81503-3.6478-1.2255-1.2041-0.41046-2.3957-0.82222-3.5719-1.2339-1.1762-0.41171-2.3367-0.82358-3.4796-1.2334-1.1429-0.40979-2.2679-0.81742-3.3722-1.2221-2.2087-0.80939-4.335-1.6057-6.3569-2.3756-2.022-0.76995-3.9398-1.5136-5.7321-2.2187-1.6057-0.6317-3.0735-1.2203-4.4605-1.78-0.05686 1.793-0.10403 3.7261-0.12992 5.7968-0.02671 2.1363-0.03228 4.4046-0.0073 6.772 0.02496 2.3674 0.08039 4.8339 0.17603 7.367 0.09565 2.5332 0.23141 5.1328 0.41675 7.7663 0.18534 2.6335 0.42023 5.3009 0.71426 7.9694 0.29403 2.6685 0.64741 5.3381 1.0691 7.9761 0.21087 1.319 0.43866 2.6304 0.68502 3.9296 0.24635 1.2991 0.51103 2.5859 0.79525 3.857 0.28422 1.2711 0.58834 2.5265 0.9128 3.7614 0.32446 1.2349 0.66945 2.4494 1.0365 3.6399 0.36707 1.1905 0.75606 2.3569 1.1681 3.4948 0.41207 1.138 0.84705 2.2478 1.3065 3.325 0.45943 1.0772 0.94353 2.1221 1.4527 3.1304 0.50918 1.0083 1.0438 1.9798 1.6051 2.911 0.5613 0.93124 1.1491 1.8221 1.7648 2.6681 0.61579 0.84598 1.2592 1.6472 1.9319 2.3998 0.67266 0.75256 1.3743 1.4564 2.1062 2.1074 0.73191 0.65096 1.4944 1.249 2.2879 1.7902 1.0317 0.70362 2.0914 1.3806 3.1765 2.0314 1.0851 0.65082 2.1954 1.2759 3.3272 1.8756 1.1318 0.59976 2.2854 1.1739 3.4571 1.7244 1.1718 0.55042 2.3619 1.077 3.5668 1.5798 1.2049 0.50281 2.4249 0.98229 3.6562 1.4392 1.2314 0.45693 2.4744 0.8909 3.7254 1.3037 1.251 0.41277 2.5098 0.80398 3.7738 1.1743s2.5329 0.71982 3.803 1.0495c2.5402 0.65928 5.0857 1.2389 7.61 1.7457 2.5243 0.50684 5.0269 0.94106 7.4812 1.3093s4.8602 0.67048 7.1904 0.91392c2.3303 0.24344 4.5855 0.42825 6.7377 0.56072 1.2403 0.0763 2.5118 0.12026 3.8115 0.13273 1.2997 0.0125 2.6274-7e-3 3.9802-0.0562 1.3528-0.0494 2.7307-0.12875 4.1303-0.2379 1.3997-0.10915 2.8211-0.24759 4.2614-0.41449 1.4402-0.16691 2.8993-0.36229 4.3739-0.58491 1.4745-0.22262 2.9647-0.47284 4.4672-0.74913 1.5026-0.2763 3.0177-0.57867 4.542-0.90661s3.0579-0.68148 4.5977-1.059 3.0853-0.77902 4.6343-1.2041c1.549-0.4251 3.1009-0.87353 4.6528-1.3442 1.5519-0.47063 3.1037-0.96333 4.6523-1.4774s3.0942-1.0496 4.6331-1.6051c1.5389-0.55557 3.0714-1.1316 4.5943-1.7266 1.523-0.59498 3.0362-1.209 4.537-1.8413 1.5008-0.63236 2.9893-1.2828 4.4616-1.9504 1.4723-0.6677 2.9284-1.3529 4.366-2.0539 0.93866-0.45771 1.8356-0.97758 2.6917-1.5551 0.85605-0.57749 1.6713-1.2123 2.4482-1.901 0.77689-0.68862 1.5153-1.431 2.2165-2.2221 0.70116-0.79109 1.3654-1.6307 1.9943-2.5157s1.2223-1.815 1.7823-2.7851 1.0864-1.9803 1.5809-3.0269c0.49458-1.0466 0.95712-2.1295 1.3897-3.244 0.43259-1.1145 0.83513-2.2609 1.2092-3.4346 0.37405-1.1737 0.71983-2.3751 1.0388-3.5994 0.31894-1.2243 0.61122-2.4716 0.87849-3.7378 0.26727-1.2662 0.50929-2.5513 0.72832-3.8508 0.21903-1.2995 0.41518-2.6133 0.58941-3.9374 0.17423-1.3241 0.32662-2.6586 0.45949-3.9987 0.13287-1.3401 0.24587-2.6856 0.34082-4.033 0.18988-2.6948 0.30732-5.3956 0.36613-8.0678 0.0588-2.6722 0.0594-5.3158 0.0146-7.8963-0.0448-2.5804-0.13503-5.0978-0.2559-7.5172-0.12086-2.4194-0.27259-4.7409-0.44205-6.93-0.03-0.38787-0.0657-0.70778-0.0967-1.0871z" fill="url(#linearGradient39456)" stroke-width="1.1518" style="paint-order:stroke markers fill"/>
   <path transform="scale(.26458)" d="m516 10.609c-125.59 0.10301-242.38 64.535-309.45 170.72-37.084 58.518-56.816 126.35-56.906 195.63-1.2e-4 202.33 164.02 366.36 366.36 366.36 202.33-9.6e-4 366.35-164.02 366.35-366.36-0.0789-61.703-15.741-122.39-45.533-176.42 0.11716 1.4338 0.25184 2.6434 0.36523 4.1094 0.64048 8.274 1.2151 17.047 1.6719 26.191 0.45683 9.1442 0.79754 18.659 0.96679 28.412 0.16932 9.7528 0.16755 19.744-0.0547 29.844-0.22223 10.1-0.66707 20.307-1.3848 30.492-0.35868 5.0926-0.78492 10.179-1.2871 15.244-0.50219 5.0649-1.0778 10.109-1.7363 15.113s-1.4007 9.9694-2.2285 14.881c-0.82783 4.9115-1.7418 9.769-2.752 14.555-1.0102 4.7858-2.1149 9.4997-3.3203 14.127-1.2054 4.6273-2.512 9.1674-3.9258 13.604-1.4137 4.4361-2.9353 8.7701-4.5703 12.982-1.635 4.2123-3.3846 8.304-5.2539 12.26-1.8693 3.9558-3.858 7.7749-5.9746 11.441-2.1165 3.6665-4.3595 7.1808-6.7363 10.525-2.3768 3.3446-4.8871 6.5179-7.5371 9.5078-2.65 2.99-5.4407 5.7958-8.377 8.3984-2.9362 2.6026-6.0184 5.0029-9.2539 7.1856-3.2355 2.1826-6.6242 4.147-10.172 5.877-5.4334 2.6494-10.937 5.2401-16.502 7.7637-5.5647 2.5236-11.191 4.9811-16.863 7.3711-5.6723 2.39-11.392 4.7102-17.148 6.959-5.7562 2.2488-11.547 4.4256-17.363 6.5254-5.8163 2.0998-11.659 4.1233-17.512 6.0664-4.3931 1.4585-18.24 0.12677-22.642 1.493-16.549-3.1676-24.949-4.1424-39.532-10.04-43.49-17.588-53.137-28.527-85.783-28.527-34.606 0-84.26 10.532-113.15 24.752-15.188 7.4761-30.782 8.605-49.027 13.882-2.6393-0.91639-21.461-1.1777-24.075-2.1477-4.654-1.7269-9.2643-3.5391-13.818-5.4395-4.5541-1.9003-9.0518-3.8904-13.48-5.9707-4.4287-2.0803-8.7886-4.2508-13.066-6.5176-4.2778-2.2668-8.4749-4.63-12.576-7.0898-4.1013-2.4598-8.1066-5.0184-12.006-7.6777-2.9992-2.0454-5.8802-4.3053-8.6465-6.7656-2.7663-2.4604-5.4186-5.1205-7.9609-7.9648-2.5423-2.8444-4.9734-5.8729-7.3008-9.0703-2.3274-3.1974-4.5485-6.5643-6.6699-10.084-2.1214-3.5196-4.142-7.191-6.0664-11.002-1.9244-3.8109-3.7558-7.7606-5.4922-11.832-1.7364-4.0714-3.3801-8.2655-4.9375-12.566s-3.0267-8.7094-4.4141-13.209c-1.3874-4.4996-2.6917-9.0885-3.918-13.756-1.2263-4.6673-2.375-9.4126-3.4492-14.217-1.0742-4.8042-2.0748-9.668-3.0058-14.578s-1.7929-9.8663-2.5898-14.852c-1.5939-9.9705-2.9297-20.061-4.041-30.146-1.1113-10.086-1.9987-20.168-2.6992-30.121-0.70049-9.9534-1.2127-19.777-1.5742-29.352-0.36151-9.5741-0.57167-18.896-0.66602-27.844-0.0944-8.9478-0.0736-17.521 0.0273-25.596 0.0979-7.826 0.27534-15.131 0.49023-21.908 5.242 2.1157 10.79 4.339 16.859 6.7266 6.7742 2.665 14.022 5.4767 21.664 8.3867 7.6421 2.91 15.68 5.9194 24.027 8.9785 4.1738 1.5296 8.4243 3.0703 12.744 4.6191 4.3198 1.5488 8.7068 3.1041 13.152 4.6602 4.4455 1.5561 8.9491 3.1127 13.5 4.6641 4.5509 1.5514 9.1511 3.0982 13.787 4.6328 4.636 1.5346 9.309 3.0566 14.01 4.5625 4.7008 1.5059 9.4285 2.9958 14.174 4.4609 4.7453 1.4652 9.5078 2.9059 14.277 4.3184 4.7696 1.4124 9.5448 2.7949 14.318 4.1426 4.7735 1.3477 9.5456 2.6626 14.303 3.9336 4.7572 1.271 9.5021 2.4994 14.223 3.6816 4.7206 1.1823 9.4164 2.3169 14.08 3.3984 4.6636 1.0816 9.2944 2.1093 13.881 3.0781 4.5864 0.96884 9.1282 1.8786 13.617 2.7227 4.4889 0.84412 8.9238 1.6227 13.295 2.3301 4.3712 0.70739 8.677 1.3436 12.91 1.9023 2.1165 0.27935 4.2167 0.53939 6.2949 0.7793 2.0782 0.23992 4.1365 0.46117 6.1738 0.66016 2.0374 0.19899 4.0529 0.37662 6.0469 0.5332 1.994 0.15655 3.966 0.29168 5.9141 0.4043 1.948 0.11263 3.8719 0.20233 5.7715 0.26953s3.7745 0.11056 5.623 0.13086c2.1051 0.0231 4.2411 0.0214 6.4043-6e-3 2.1632-0.0268 4.3538-0.0788 6.5723-0.1543s4.4636-0.17442 6.7344-0.29687c2.2708-0.1225 4.5665-0.26963 6.8867-0.4375 2.3202-0.16785 4.6664-0.35475 7.0332-0.56641 2.3668-0.21165 4.7536-0.44537 7.1641-0.69922 2.4105-0.25387 4.8456-0.52974 7.2969-0.82422 2.4512-0.2945 4.9191-0.60981 7.4082-0.94336 4.9783-0.66706 10.032-1.4089 15.145-2.2226 5.1125-0.8138 10.284-1.6986 15.508-2.6465 5.2237-0.94788 10.499-1.9599 15.811-3.0293 5.3117-1.0694 10.662-2.1949 16.039-3.373 5.3766-1.1782 10.779-2.4073 16.197-3.6816 5.4184-1.2744 10.852-2.5932 16.289-3.9512 5.437-1.3579 10.876-2.7547 16.309-4.1836 5.4326-1.4289 10.859-2.8918 16.264-4.3789 5.4051-1.4872 10.79-3.0004 16.145-4.5332 5.3544-1.5328 10.678-3.0846 15.959-4.6504 5.2806-1.5658 10.519-3.1442 15.703-4.7305 5.1837-1.5862 10.313-3.1814 15.377-4.7754 5.0637-1.594 10.06-3.1882 14.98-4.7773 4.9206-1.5891 9.7652-3.1725 14.52-4.7441 9.5087-3.1432 18.66-6.2389 27.365-9.2363 5.721-1.9699 10.911-3.8148 16.219-5.6856-65.807-111.93-185.94-180.66-315.78-180.67z" fill="url(#linearGradient38060)" stroke-width="8.7067" style="paint-order:stroke markers fill"/>
   <path d="m87.788 64.686c11.027-9.3883 27.973-3.5836 31.592 10.439 3.7302 14.455 1.7489 31.281-1.6483 45.877-3.1968 13.735-33.395 12.886-38.46-0.27471-5.6301-14.631-5.4984-44.109 8.5161-56.041z" fill="#fefff0" stroke-width="1.1518" style="paint-order:stroke markers fill"/>
   <path d="m186.78 63.51c-11.027-9.3883-27.973-3.5836-31.592 10.439-3.7302 14.455-1.7489 31.281 1.6483 45.877 3.1968 13.735 33.395 12.886 38.46-0.27472 5.6301-14.631 5.4984-44.109-8.5161-56.041z" fill="#fefff0" stroke-width="1.1518" style="paint-order:stroke markers fill"/>
  </g>
 </g>
 <g fill-rule="evenodd">
  <path d="m112.78 102.32c0 12.441-6.5834 19.23-13.333 19.23-6.7497 0-12.758-10.085-12.758-22.526 1e-6 -12.441 9.7466-26.372 16.496-26.372 6.7497-3e-6 9.5948 17.228 9.5948 29.669z" fill="#0a0a0a" stroke="#fff" stroke-width=".29461" style="paint-order:stroke markers fill"/>
  <path d="m162.93 100.95c0 12.441 6.5834 19.23 13.333 19.23 6.7497 0 12.758-10.085 12.758-22.526 0-12.441-9.7466-26.372-16.496-26.372-6.7497-3e-6 -9.5948 17.228-9.5948 29.669z" fill="#0a0a0a" stroke="#fff" stroke-width=".29461" style="paint-order:stroke markers fill"/>
  <path d="m60.682 39.182c58.396 26.543 118.96 26.554 154.25 2.6864 6.2376 2.3164 12.568 15.452 8.2702 17.751-46.748 25.003-110.57 23.663-169.52-0.10673-6.9995-2.8225 0.35686-15.27 7.0034-20.33z" fill="url(#linearGradient43307)" stroke="#000" stroke-width="1.1518" style="paint-order:stroke markers fill"/>
 </g>
 <path d="m131.36 230.29s7.8809-4.1542 13.069-11.683c5.3773-7.8033 6.0125-22.961 6.0125-22.961" fill="none" stroke="#000" stroke-width="1.0583"/>
 <g fill-rule="evenodd">
  <path d="m203.76 219.26c-1.0056 2.4869-1.9051 3.86-3.6492 6.5636-36.343 9.0517-87.364 21.698-128.4-0.44625-2.1878-2.8672-2.7335-3.9741-3.7824-8.1372 33.975 19.73 102.37 11.942 135.83 2.0198z" fill="url(#linearGradient43665)" stroke="#000" stroke-width="1.0583" style="paint-order:stroke markers fill"/>
  <path d="m87.157 61.783 42.08 17.349 1.2621 12.747-54.143-20.572z" stroke="#fff" stroke-width=".26458" style="paint-order:stroke markers fill"/>
  <path d="m190.31 61.743-42.08 17.349-1.2621 12.747 54.143-20.572z" stroke="#fff" stroke-width=".26458" style="paint-order:stroke markers fill"/>
 </g>
 <path d="m131.28 197.21 10.533 9.0247c2.542 2.1779 3.2055 11.921 3.2055 11.921" fill="none" stroke="#000" stroke-width="1.0583"/>
</svg>
