<?xml version="1.0" encoding="UTF-8"?>
<!-- Created with Inkscape (http://www.inkscape.org/) -->
<svg width="1e3" height="1e3" version="1.1" viewBox="0 0 264.58 264.58" xmlns="http://www.w3.org/2000/svg" xmlns:xlink="http://www.w3.org/1999/xlink">
 <defs>
  <linearGradient id="linearGradient43305">
   <stop stop-color="#800000" offset="0"/>
   <stop stop-color="#b40000" offset="1"/>
  </linearGradient>
  <linearGradient id="linearGradient38060" x1="350" x2="614.06" y1="756.35" y2="99.643" gradientTransform="matrix(0 .28794 -.28794 0 287.45 -12.137)" gradientUnits="userSpaceOnUse">
   <stop stop-color="#00007c" offset="0"/>
   <stop stop-color="#0000be" offset="1"/>
  </linearGradient>
  <linearGradient id="linearGradient39456" x1="494.66" x2="494.66" y1="584.47" y2="350.75" gradientTransform="matrix(0 .28795 -.28795 0 287.45 -12.137)" gradientUnits="userSpaceOnUse">
   <stop stop-color="#e0ac69" offset="0"/>
   <stop stop-color="#ffc99b" offset="1"/>
  </linearGradient>
  <linearGradient id="linearGradient42579" x1="101.8" x2="164.98" y1="237.29" y2="134.72" gradientTransform="translate(-7.8968 -264.78)" gradientUnits="userSpaceOnUse">
   <stop stop-color="#00008c" offset="0"/>
   <stop stop-color="#0000be" offset="1"/>
  </linearGradient>
  <linearGradient id="linearGradient43307" x1="124.87" x2="155.21" y1="84.894" y2="38.131" gradientTransform="rotate(90 136.34 128.44)" gradientUnits="userSpaceOnUse" xlink:href="#linearGradient43305"/>
  <linearGradient id="linearGradient43665" x1="102.8" x2="167.87" y1="248.73" y2="210.18" gradientTransform="rotate(90 136.34 128.44)" gradientUnits="userSpaceOnUse" xlink:href="#linearGradient43305"/>
  <linearGradient id="linearGradient57449" x1="207.65" x2="223.33" y1="38.796" y2="18.037" gradientTransform="rotate(90 136.34 128.44)" gradientUnits="userSpaceOnUse" xlink:href="#linearGradient43305"/>
  <linearGradient id="linearGradient58947" x1="204.92" x2="251.83" y1="54.685" y2="47.87" gradientTransform="rotate(90 136.34 128.44)" gradientUnits="userSpaceOnUse" xlink:href="#linearGradient43305"/>
 </defs>
 <g fill-rule="evenodd">
  <path d="m222.52 200.88c8.6843 8.1931-0.39375 49.743-0.39375 49.743s-1.1804-44.043-19.035-35.538c-14.856 7.0767-9.2093-6.0123-0.525-14.205 4.7031-4.4371 15.25-4.4371 19.953 0z" fill="url(#linearGradient58947)" stroke="#000" stroke-width="2.1167" style="paint-order:stroke markers fill"/>
  <path d="m225.98 199.75c1.3934 17.359 37.303 31.584 37.303 31.584s-40.077-6.2905-49.118-19.157c-23.646-24.631 8.4576-30.401 11.814-12.427z" fill="url(#linearGradient57449)" stroke="#000" stroke-width="2.1167" style="paint-order:stroke markers fill"/>
  <ellipse transform="rotate(90)" cx="128.45" cy="-83.669" rx="75.388" ry="80.639" fill="url(#linearGradient42579)" stroke="#000001" stroke-width="2.3036" style="paint-order:stroke markers fill"/>
  <g stroke="#000">
   <path d="m211.72 213.51a96.931 96.931 0 0 0 2.4504-1.334c-0.49497-1.4043-0.98268-2.7775-1.5039-4.2912-0.79306-2.3032-1.6126-4.7246-2.4442-7.2405-0.41582-1.2579-0.83428-2.5394-1.2547-3.8413-0.42045-1.3019-0.84256-2.6241-1.2643-3.9639s-0.84348-2.697-1.2632-4.0685c-0.41969-1.3715-0.83763-2.7574-1.2519-4.1545-0.4143-1.3972-0.825-2.8059-1.2306-4.2226-0.40556-1.4167-0.80558-2.8414-1.1991-4.2715-0.39348-1.4301-0.78052-2.8656-1.1586-4.303-0.37805-1.4374-0.74754-2.8768-1.1068-4.3154-0.35929-1.4386-0.70834-2.8761-1.0455-4.3098-0.33718-1.4336-0.66237-2.863-0.9741-4.2856s-0.60961-2.838-0.89255-4.2434c-0.28293-1.4054-0.55064-2.8011-0.80143-4.1832-0.2508-1.3821-0.48489-2.7507-0.7002-4.1034-0.21532-1.3527-0.41179-2.6894-0.58828-4.0066-0.0882-0.65858-0.1718-1.312-0.24971-1.9606-0.0779-0.64856-0.15049-1.2924-0.21765-1.9302-0.0672-0.63778-0.12904-1.2697-0.18503-1.8959-0.056-0.62622-0.10575-1.2466-0.15016-1.8605-0.0444-0.61389-0.0834-1.2214-0.11586-1.8222-0.0324-0.60081-0.0582-1.1948-0.0782-1.7817-0.02-0.58696-0.0339-1.1666-0.0411-1.739-7e-3 -0.57235-8e-3 -1.1376-2e-3 -1.6946 5e-3 -0.4891 0.0171-0.98498 0.0349-1.4876 0.0178-0.5026 0.0416-1.0121 0.0714-1.5275s0.0654-1.037 0.10686-1.5646c0.0414-0.52757 0.0885-1.061 0.14117-1.6001 0.0526-0.53905 0.11087-1.0834 0.17435-1.6332 0.0635-0.54986 0.1325-1.1053 0.2064-1.6653 0.14782-1.12 0.31619-2.2596 0.50336-3.4161s0.39306-2.3296 0.6164-3.5173 0.46411-2.3899 0.72045-3.6034 0.52821-2.4386 0.81437-3.6725c0.28615-1.2339 0.58648-2.4764 0.89929-3.7254s0.63781-2.5044 0.9741-3.7631c0.33628-1.2587 0.68388-2.5209 1.0405-3.7839 0.35658-1.263 0.72243-2.5265 1.0961-3.7884 0.37371-1.2619 0.75516-2.5222 1.1428-3.7777 0.38766-1.2555 0.7815-2.5064 1.1799-3.7502 0.39844-1.2438 0.80146-2.4802 1.2075-3.7069 0.40604-1.2266 0.81503-2.4437 1.2255-3.6478 0.41046-1.2041 0.82222-2.3957 1.2339-3.5719 0.41171-1.1762 0.82358-2.3367 1.2334-3.4796 0.40979-1.1429 0.81742-2.2679 1.2221-3.3722 0.80939-2.2087 1.6057-4.335 2.3756-6.3569 0.76995-2.022 1.5136-3.9398 2.2187-5.7321 0.6317-1.6057 1.2203-3.0735 1.78-4.4605-1.793-0.05686-3.7261-0.10403-5.7968-0.12992-2.1363-0.02671-4.4046-0.03228-6.772-0.0073-2.3674 0.02496-4.8339 0.08039-7.367 0.17603-2.5332 0.09565-5.1328 0.23141-7.7663 0.41675s-5.3009 0.42023-7.9694 0.71426-5.3381 0.64741-7.9761 1.0691c-1.319 0.21087-2.6304 0.43866-3.9296 0.68502-1.2991 0.24635-2.5859 0.51103-3.857 0.79525s-2.5265 0.58834-3.7614 0.9128-2.4494 0.66945-3.6399 1.0365c-1.1905 0.36707-2.3569 0.75606-3.4948 1.1681-1.138 0.41207-2.2478 0.84705-3.325 1.3065-1.0772 0.45943-2.1221 0.94353-3.1304 1.4527-1.0083 0.50918-1.9798 1.0438-2.911 1.6051-0.93124 0.5613-1.8221 1.1491-2.6681 1.7648-0.84598 0.61579-1.6472 1.2592-2.3998 1.9319-0.75256 0.67266-1.4564 1.3743-2.1074 2.1062-0.65096 0.73191-1.249 1.4944-1.7902 2.2879-0.70362 1.0317-1.3806 2.0914-2.0314 3.1765-0.65082 1.0851-1.2759 2.1954-1.8756 3.3272-0.59976 1.1318-1.1739 2.2854-1.7244 3.4571-0.55042 1.1718-1.077 2.3619-1.5798 3.5668-0.50281 1.2049-0.98229 2.4249-1.4392 3.6562-0.45693 1.2314-0.8909 2.4744-1.3037 3.7254-0.41277 1.251-0.80398 2.5098-1.1743 3.7738s-0.71982 2.5329-1.0495 3.803c-0.65928 2.5402-1.2389 5.0857-1.7457 7.61-0.50684 2.5243-0.94106 5.0269-1.3093 7.4812s-0.67048 4.8602-0.91392 7.1904c-0.24344 2.3303-0.42825 4.5855-0.56072 6.7377-0.0763 1.2403-0.12026 2.5118-0.13273 3.8115-0.0125 1.2997 7e-3 2.6274 0.0562 3.9802 0.0494 1.3528 0.12875 2.7307 0.2379 4.1303 0.10915 1.3997 0.24759 2.8211 0.41449 4.2614 0.16691 1.4402 0.36229 2.8993 0.58491 4.3739 0.22262 1.4745 0.47284 2.9647 0.74913 4.4672 0.2763 1.5026 0.57867 3.0177 0.90661 4.542s0.68148 3.0579 1.059 4.5977 0.77902 3.0853 1.2041 4.6343c0.4251 1.549 0.87353 3.1009 1.3442 4.6528 0.47063 1.5519 0.96333 3.1037 1.4774 4.6523s1.0496 3.0942 1.6051 4.6331c0.55557 1.5389 1.1316 3.0714 1.7266 4.5943 0.59498 1.523 1.209 3.0362 1.8413 4.537 0.63236 1.5008 1.2828 2.9893 1.9504 4.4616 0.6677 1.4723 1.3529 2.9284 2.0539 4.366 0.45771 0.93866 0.97758 1.8356 1.5551 2.6917 0.57749 0.85605 1.2123 1.6713 1.901 2.4482 0.68862 0.77689 1.431 1.5153 2.2221 2.2165 0.79109 0.70116 1.6307 1.3654 2.5157 1.9943s1.815 1.2223 2.7851 1.7823 1.9803 1.0864 3.0269 1.5809c1.0466 0.49458 2.1295 0.95712 3.244 1.3897 1.1145 0.43259 2.2609 0.83513 3.4346 1.2092 1.1737 0.37405 2.3751 0.71983 3.5994 1.0388 1.2243 0.31894 2.4716 0.61122 3.7378 0.87849s2.5513 0.50929 3.8508 0.72832 2.6133 0.41518 3.9374 0.58941 2.6586 0.32662 3.9987 0.45949 2.6856 0.24587 4.033 0.34082c2.6948 0.18988 5.3956 0.30732 8.0678 0.36613 2.6722 0.0588 5.3158 0.0594 7.8963 0.0146 2.5804-0.0448 5.0978-0.13503 7.5172-0.2559 2.4194-0.12086 4.7409-0.27259 6.93-0.44205 0.38787-0.03 0.70778-0.0657 1.0871-0.0967z" fill="url(#linearGradient39456)" stroke-width="1.1518" style="paint-order:stroke markers fill"/>
   <path d="m261.97 128.63c-0.0272-33.229-17.075-64.129-45.169-81.874-15.483-9.8117-33.43-15.032-51.76-15.056-53.532-3.2e-5 -96.932 43.396-96.932 96.932 2.54e-4 53.532 43.396 96.929 96.932 96.929 16.325-0.0209 32.382-4.1648 46.677-12.047-0.37935 0.031-0.69939 0.0666-1.0873 0.0966-2.1891 0.16946-4.5103 0.32149-6.9296 0.44235-2.4194 0.12087-4.9368 0.21102-7.5172 0.2558-2.5804 0.0448-5.2239 0.0443-7.8961-0.0145s-5.3728-0.17649-8.0676-0.36639c-1.3474-0.0949-2.6932-0.20767-4.0333-0.34054-1.3401-0.13287-2.6746-0.28516-3.9986-0.45939-1.324-0.17422-2.6377-0.37059-3.9372-0.58961-1.2995-0.21903-2.5847-0.46085-3.851-0.72813-1.2662-0.26728-2.5134-0.55956-3.7377-0.87848-1.2243-0.31893-2.4255-0.66463-3.5993-1.0387-1.1737-0.37404-2.3204-0.77662-3.4348-1.2092-1.1145-0.43259-2.1971-0.8955-3.2438-1.3901-1.0466-0.49458-2.0571-1.0208-3.0271-1.5808-0.97008-0.55998-1.8999-1.1534-2.7847-1.7823-0.88491-0.62885-1.7245-1.293-2.5156-1.9942-0.79109-0.70114-1.5334-1.4395-2.222-2.2164-0.6886-0.77686-1.3237-1.5924-1.9012-2.4484-0.57747-0.85605-1.0972-1.7526-1.5549-2.6913-0.70098-1.4376-1.3864-2.8937-2.0541-4.3661-0.6677-1.4723-1.3179-2.9609-1.9502-4.4616-0.63234-1.5008-1.2462-3.0141-1.8412-4.537-0.59499-1.523-1.1709-3.0551-1.7265-4.5939-0.55556-1.5389-1.0909-3.0847-1.605-4.6333-0.38589-1.1623-0.0335-4.8259-0.39502-5.9906 0.83809-4.3785 1.096-6.601 2.6564-10.459 4.6534-11.507 7.5477-14.059 7.5477-22.696 0-9.1561-2.7866-22.294-6.5489-29.937-1.978-4.0184-2.2767-8.1443-3.6729-12.972 0.24246-0.69831 0.31159-5.6782 0.56824-6.3698 0.4569-1.2314 0.93637-2.4511 1.4392-3.656 0.50278-1.2049 1.0293-2.3949 1.5797-3.5665 0.5504-1.1717 1.1247-2.3253 1.7244-3.457 0.59975-1.1318 1.225-2.2423 1.8758-3.3274 0.65082-1.0851 1.3278-2.1448 2.0314-3.1765 0.54117-0.79353 1.1391-1.5558 1.79-2.2877 0.65097-0.73191 1.3548-1.4337 2.1073-2.1063 0.75257-0.67264 1.5538-1.3159 2.3998-1.9316 0.84597-0.61578 1.7368-1.2034 2.668-1.7647 0.93122-0.56128 1.9026-1.0959 2.9109-1.605 1.0083-0.50916 2.0533-0.99371 3.1305-1.4531 1.0772-0.45942 2.1869-0.89431 3.3247-1.3064 1.1378-0.41206 2.3043-0.8008 3.4948-1.1679 1.1905-0.36708 2.4046-0.71217 3.6396-1.0366 1.2349-0.32446 2.4904-0.62838 3.7615-0.91259 1.2711-0.28421 2.558-0.54895 3.857-0.79527 1.2991-0.24632 2.6104-0.47437 3.9296-0.68521 2.638-0.42171 5.3077-0.77514 7.976-1.0692 2.6686-0.29403 5.336-0.52882 7.9694-0.71416 2.6335-0.18534 5.2326-0.32086 7.766-0.4165 2.5331-0.09565 4.9995-0.15125 7.367-0.17622 2.3674-0.02498 4.6357-0.01947 6.7722 0.0072 2.0706 0.0259 4.0034 0.07285 5.7964 0.1297-0.55978 1.3869-1.148 2.8548-1.7797 4.4606-0.7051 1.7923-1.449 3.7099-2.219 5.7319-0.76993 2.0219-1.5662 4.1486-2.3755 6.3571-0.4047 1.1043-0.81234 2.2289-1.2221 3.3718-0.40979 1.1429-0.82129 2.3036-1.233 3.4798-0.41171 1.1762-0.82356 2.3678-1.234 3.5718s-0.81972 2.4212-1.2257 3.6478c-0.40603 1.2266-0.80872 2.463-1.2072 3.7068-0.39843 1.2437-0.79263 2.4946-1.1803 3.7502-0.38767 1.2555-0.76885 2.5156-1.1426 3.7774-0.37369 1.2619-0.73947 2.5254-1.096 3.7883-0.35657 1.263-0.70447 2.5256-1.0408 3.7843-0.33628 1.2587-0.66129 2.5141-0.97408 3.7631-0.31281 1.249-0.613 2.4914-0.89914 3.7253-0.28617 1.2339-0.55808 2.4591-0.81441 3.6726-0.25633 1.2135-0.49704 2.4151-0.72037 3.6028-0.22334 1.1877-0.42933 2.3611-0.6165 3.5176-0.18716 1.1565-0.35549 2.2958-0.50331 3.4157-0.0739 0.55998-0.14271 1.1156-0.20619 1.6655-0.0635 0.54985-0.12201 1.0944-0.17466 1.6335-0.0526 0.53906-0.0996 1.0723-0.14107 1.5999-0.0414 0.52758-0.0772 1.0493-0.10697 1.5648-0.0298 0.5154-0.0535 1.0244-0.0713 1.527-0.0178 0.50259-0.0293 0.99866-0.0346 1.4877-6e-3 0.55697-6e-3 1.1221 2e-3 1.6944 7e-3 0.57234 0.0208 1.1519 0.0408 1.7389s0.0461 1.181 0.0785 1.7818 0.0713 1.2082 0.11575 1.8221c0.0444 0.61388 0.0939 1.2346 0.14986 1.8608 0.056 0.6262 0.11784 1.2577 0.185 1.8955 0.0672 0.63777 0.14016 1.282 0.21807 1.9306 0.0779 0.64854 0.16135 1.3015 0.2496 1.9601 0.17649 1.3172 0.37277 2.6543 0.58805 4.0071 0.21532 1.3527 0.44942 2.7209 0.70022 4.1031 0.25079 1.3821 0.51855 2.7778 0.80149 4.1833 0.28294 1.4054 0.58072 2.821 0.89243 4.2436 0.31172 1.4225 0.63692 2.8519 0.97407 4.2854 0.33718 1.4336 0.68611 2.8712 1.0454 4.3098 0.35928 1.4385 0.72884 2.8776 1.1069 4.315 0.37806 1.4374 0.76511 2.8731 1.1586 4.3031 0.39348 1.4301 0.79384 2.8548 1.1994 4.2716 0.40555 1.4167 0.81613 2.8252 1.2304 4.2224 0.41427 1.3971 0.83189 2.7831 1.2516 4.1547 0.41968 1.3715 0.84174 2.7286 1.2635 4.0684 0.42174 1.3398 0.84353 2.6617 1.264 3.9634 0.42045 1.3019 0.83938 2.5837 1.2552 3.8417 0.83163 2.5158 1.6507 4.9371 2.4437 7.2402 0.52119 1.5137 1.0093 2.8868 1.5043 4.2912 29.614-17.411 47.799-49.196 47.802-83.549z" fill="url(#linearGradient38060)" stroke-width="2.3036" style="paint-order:stroke markers fill"/>
   <path d="m225.6 52.785c-26.543 58.396-26.554 118.96-2.6864 154.25-2.3164 6.2376-15.452 12.568-17.751 8.2702-25.003-46.748-23.663-110.57 0.10673-169.52 2.8225-6.9995 15.27 0.35686 20.33 7.0034z" fill="url(#linearGradient43307)" stroke-width="1.1518" style="paint-order:stroke markers fill"/>
  </g>
 </g>
 <path d="m34.489 123.46s4.1542 7.8809 11.683 13.069c7.8033 5.3773 22.961 6.0125 22.961 6.0125" fill="none" stroke="#000" stroke-width="1.0583"/>
 <g fill-rule="evenodd">
  <path d="m45.519 195.86c-2.4869-1.0056-3.86-1.9051-6.5636-3.6492-9.0517-36.343-21.698-87.364 0.44625-128.4 2.8672-2.1878 3.9741-2.7335 8.1372-3.7824-19.73 33.975-11.942 102.37-2.0198 135.83z" fill="url(#linearGradient43665)" stroke="#000" stroke-width="1.0583" style="paint-order:stroke markers fill"/>
  <path d="m121.94 55.703-1.142 12.375 33.201 25.129-40.223 24.652 7.1778 4.9547 41.943-22.873 34.871 26.393 3.9046-10.357-28.573-21.599 41.014-22.366-2.3916-14.18-48.028 29.436z" stroke="#fff" stroke-width=".26458" style="paint-order:stroke markers fill"/>
  <path d="m120.88 137.99-1.142 12.375 33.201 25.129-40.223 24.652 7.1778 4.9547 41.943-22.873 34.871 26.393 3.9046-10.357-28.573-21.599 41.014-22.366-2.3916-14.18-48.028 29.436z" stroke="#fff" stroke-width=".26458" style="paint-order:stroke markers fill"/>
 </g>
 <path d="m67.569 123.38-9.0247 10.533c-2.1779 2.542-11.921 3.2055-11.921 3.2055" fill="none" stroke="#000" stroke-width="1.0583"/>
</svg>
