<?xml version="1.0" encoding="UTF-8" standalone="no"?>
<!-- Created with Inkscape (http://www.inkscape.org/) -->

<svg
   width="1e3"
   height="1e3"
   version="1.1"
   viewBox="0 0 264.58 264.58"
   id="svg64"
   sodipodi:docname="Player_5.svg"
   inkscape:version="1.1.1 (3bf5ae0d25, 2021-09-20)"
   inkscape:export-filename="D:\UnityProjects\Skill - Ninja\Assets\Resources\Player\Player_4.png"
   inkscape:export-xdpi="96"
   inkscape:export-ydpi="96"
   xmlns:inkscape="http://www.inkscape.org/namespaces/inkscape"
   xmlns:sodipodi="http://sodipodi.sourceforge.net/DTD/sodipodi-0.dtd"
   xmlns:xlink="http://www.w3.org/1999/xlink"
   xmlns="http://www.w3.org/2000/svg"
   xmlns:svg="http://www.w3.org/2000/svg">
  <sodipodi:namedview
     id="namedview66"
     pagecolor="#ffffff"
     bordercolor="#666666"
     borderopacity="1.0"
     inkscape:pageshadow="2"
     inkscape:pageopacity="0.0"
     inkscape:pagecheckerboard="0"
     showgrid="false"
     inkscape:zoom="0.832"
     inkscape:cx="597.35577"
     inkscape:cy="450.12019"
     inkscape:window-width="1920"
     inkscape:window-height="1017"
     inkscape:window-x="1912"
     inkscape:window-y="-8"
     inkscape:window-maximized="1"
     inkscape:current-layer="svg64" />
  <defs
     id="defs26">
    <linearGradient
       id="linearGradient43305">
      <stop
         stop-color="#800000"
         offset="0"
         id="stop2" />
      <stop
         stop-color="#b40000"
         offset="1"
         id="stop4" />
    </linearGradient>
    <linearGradient
       id="linearGradient38060"
       x1="350"
       x2="614.06"
       y1="756.35"
       y2="99.643"
       gradientTransform="matrix(0.28794,0,0,0.28794,-4.2404,-22.672)"
       gradientUnits="userSpaceOnUse">
      <stop
         stop-color="#00007c"
         offset="0"
         id="stop7" />
      <stop
         stop-color="#0000be"
         offset="1"
         id="stop9" />
    </linearGradient>
    <linearGradient
       id="linearGradient39456"
       x1="494.66"
       x2="494.66"
       y1="584.47"
       y2="350.75"
       gradientTransform="matrix(0.28795,0,0,0.28795,-4.2406,-22.673)"
       gradientUnits="userSpaceOnUse">
      <stop
         stop-color="#e0ac69"
         offset="0"
         id="stop12" />
      <stop
         stop-color="#ffc99b"
         offset="1"
         id="stop14" />
    </linearGradient>
    <linearGradient
       id="linearGradient42579"
       x1="101.8"
       x2="164.98"
       y1="237.29"
       y2="134.72"
       gradientUnits="userSpaceOnUse">
      <stop
         stop-color="#00008c"
         offset="0"
         id="stop17" />
      <stop
         stop-color="#0000be"
         offset="1"
         id="stop19" />
    </linearGradient>
    <linearGradient
       id="linearGradient43307"
       x1="124.87"
       x2="155.21"
       y1="84.894"
       y2="38.131"
       gradientUnits="userSpaceOnUse"
       xlink:href="#linearGradient43305"
       gradientTransform="translate(0,2.6458403)" />
    <linearGradient
       id="linearGradient43665"
       x1="102.8"
       x2="167.87"
       y1="248.73"
       y2="210.18"
       gradientTransform="translate(0.318,0.94602)"
       gradientUnits="userSpaceOnUse"
       xlink:href="#linearGradient43305" />
    <linearGradient
       id="linearGradient57449"
       x1="207.65"
       x2="223.33"
       y1="38.796"
       y2="18.037"
       gradientUnits="userSpaceOnUse"
       xlink:href="#linearGradient43305"
       gradientTransform="rotate(40,192.99486,43.787097)" />
    <linearGradient
       id="linearGradient58947"
       x1="204.92"
       x2="251.83"
       y1="54.685"
       y2="47.87"
       gradientUnits="userSpaceOnUse"
       xlink:href="#linearGradient43305"
       gradientTransform="rotate(-40,239.62624,71.821601)" />
  </defs>
  <path
     d="m 196.99096,68.999084 c 0.69412,-11.918983 38.35844,-31.672553 38.35844,-31.672553 0,0 -32.98013,29.214528 -14.98822,37.425041 14.97032,6.831543 1.31394,10.919366 -10.54419,9.532968 -6.42212,-0.750667 -13.20153,-8.830062 -12.82556,-15.284877 z"
     fill="url(#linearGradient58947)"
     stroke="#000000"
     stroke-width="2.1167"
     style="fill:url(#linearGradient58947);fill-rule:evenodd;paint-order:stroke markers fill"
     id="path28"
     inkscape:export-filename="D:\UnityProjects\Skill - Ninja\Assets\Resources\Player\Player_4.png"
     inkscape:export-xdpi="96"
     inkscape:export-ydpi="96" />
  <path
     d="m 207.42957,49.383838 c 14.19342,10.090742 48.17265,-8.273955 48.17265,-8.273955 0,0 -30.57981,26.657305 -46.24756,25.312687 -34.0678,2.281383 -17.85208,-26.020281 -1.92574,-17.037971 z"
     fill="url(#linearGradient57449)"
     stroke="#000000"
     stroke-width="2.1167"
     style="fill:url(#linearGradient57449);fill-rule:evenodd;paint-order:stroke markers fill"
     id="path30" />
  <ellipse
     cx="136.35001"
     cy="181.11"
     rx="75.388"
     ry="80.639"
     fill="url(#linearGradient42579)"
     stroke="#000001"
     stroke-width="2.3036"
     style="fill:url(#linearGradient42579);fill-rule:evenodd;paint-order:stroke markers fill"
     id="ellipse32" />
  <path
     d="m131.36 230.29s7.8809-4.1542 13.069-11.683c5.3773-7.8033 6.0125-22.961 6.0125-22.961"
     fill="none"
     stroke="#000"
     stroke-width="1.0583"
     id="path52" />
  <path
     d="m 204.08,220.21 c -1.0056,2.4869 -1.9051,3.86 -3.6492,6.5636 -36.343,9.0517 -87.364,21.698 -128.4,-0.44625 -2.1878,-2.8672 -2.7335,-3.9741 -3.7824,-8.1372 33.975,19.73 102.37,11.942 135.83,2.0198 z"
     fill="url(#linearGradient43665)"
     stroke="#000000"
     stroke-width="1.0583"
     style="fill:url(#linearGradient43665);fill-rule:evenodd;paint-order:stroke markers fill"
     id="path54" />
  <path
     d="m131.28 197.21 10.533 9.0247c2.542 2.1779 3.2055 11.921 3.2055 11.921"
     fill="none"
     stroke="#000"
     stroke-width="1.0583"
     id="path62" />
  <g
     id="g910"
     transform="translate(0,10.5832)">
    <g
       stroke="#000000"
       id="g42"
       style="fill-rule:evenodd"
       transform="translate(0,2.6458403)">
      <path
         d="m 221.41,53.061 a 96.931,96.931 0 0 0 -1.334,-2.4504 c -1.4043,0.49497 -2.7775,0.98268 -4.2912,1.5039 -2.3032,0.79306 -4.7246,1.6126 -7.2405,2.4442 -1.2579,0.41582 -2.5394,0.83428 -3.8413,1.2547 -1.3019,0.42045 -2.6241,0.84256 -3.9639,1.2643 -1.3398,0.42174 -2.697,0.84348 -4.0685,1.2632 -1.3715,0.41969 -2.7574,0.83763 -4.1545,1.2519 -1.3972,0.4143 -2.8059,0.825 -4.2226,1.2306 -1.4167,0.40556 -2.8414,0.80558 -4.2715,1.1991 -1.4301,0.39348 -2.8656,0.78052 -4.303,1.1586 -1.4374,0.37805 -2.8768,0.74754 -4.3154,1.1068 -1.4386,0.35929 -2.8761,0.70834 -4.3098,1.0455 -1.4336,0.33718 -2.863,0.66237 -4.2856,0.9741 -1.4226,0.31173 -2.838,0.60961 -4.2434,0.89255 -1.4054,0.28293 -2.8011,0.55064 -4.1832,0.80143 -1.3821,0.2508 -2.7507,0.48489 -4.1034,0.7002 -1.3527,0.21532 -2.6894,0.41179 -4.0066,0.58828 -0.65858,0.08825 -1.312,0.1718 -1.9606,0.24971 -0.64856,0.07791 -1.2924,0.15049 -1.9302,0.21765 -0.63778,0.06717 -1.2697,0.12904 -1.8959,0.18503 -0.62622,0.056 -1.2466,0.10575 -1.8605,0.15016 -0.61389,0.04441 -1.2214,0.08345 -1.8222,0.11586 -0.60081,0.03241 -1.1948,0.05819 -1.7817,0.07817 -0.58696,0.01999 -1.1666,0.03391 -1.739,0.04106 -0.57235,0.0071 -1.1376,0.0078 -1.6946,0.0017 -0.4891,-0.0054 -0.98498,-0.01709 -1.4876,-0.03487 -0.5026,-0.01778 -1.0121,-0.04163 -1.5275,-0.07143 -0.5154,-0.0298 -1.037,-0.06544 -1.5646,-0.10686 -0.52757,-0.04142 -1.061,-0.08852 -1.6001,-0.14117 -0.53905,-0.05265 -1.0834,-0.11087 -1.6332,-0.17435 -0.54986,-0.06348 -1.1053,-0.1325 -1.6653,-0.2064 -1.12,-0.14782 -2.2596,-0.31619 -3.4161,-0.50336 -1.1565,-0.18717 -2.3296,-0.39306 -3.5173,-0.6164 -1.1877,-0.22334 -2.3899,-0.46411 -3.6034,-0.72045 -1.2135,-0.25634 -2.4386,-0.52821 -3.6725,-0.81437 -1.2339,-0.28615 -2.4764,-0.58648 -3.7254,-0.89929 -1.249,-0.31281 -2.5044,-0.63781 -3.7631,-0.9741 -1.2587,-0.33628 -2.5209,-0.68388 -3.7839,-1.0405 -1.263,-0.35658 -2.5265,-0.72243 -3.7884,-1.0961 -1.2619,-0.37371 -2.5222,-0.75516 -3.7777,-1.1428 -1.2555,-0.38766 -2.5064,-0.7815 -3.7502,-1.1799 -1.2438,-0.39844 -2.4802,-0.80146 -3.7069,-1.2075 -1.2266,-0.40604 -2.4437,-0.81503 -3.6478,-1.2255 -1.2041,-0.41046 -2.3957,-0.82222 -3.5719,-1.2339 -1.1762,-0.41171 -2.3367,-0.82358 -3.4796,-1.2334 -1.1429,-0.40979 -2.2679,-0.81742 -3.3722,-1.2221 -2.2087,-0.80939 -4.335,-1.6057 -6.3569,-2.3756 -2.022,-0.76995 -3.9398,-1.5136 -5.7321,-2.2187 -1.6057,-0.6317 -3.0735,-1.2203 -4.4605,-1.78 -0.05686,1.793 -0.10403,3.7261 -0.12992,5.7968 -0.02671,2.1363 -0.03228,4.4046 -0.0073,6.772 0.02496,2.3674 0.08039,4.8339 0.17603,7.367 0.09565,2.5332 0.23141,5.1328 0.41675,7.7663 0.18534,2.6335 0.42023,5.3009 0.71426,7.9694 0.29403,2.6685 0.64741,5.3381 1.0691,7.9761 0.21087,1.319 0.43866,2.6304 0.68502,3.9296 0.24635,1.2991 0.51103,2.5859 0.79525,3.857 0.28422,1.2711 0.58834,2.5265 0.9128,3.7614 0.32446,1.2349 0.66945,2.4494 1.0365,3.6399 0.36707,1.1905 0.75606,2.3569 1.1681,3.4948 0.41207,1.138 0.84705,2.2478 1.3065,3.325 0.45943,1.0772 0.94353,2.1221 1.4527,3.1304 0.50918,1.0083 1.0438,1.9798 1.6051,2.911 0.5613,0.93124 1.1491,1.8221 1.7648,2.6681 0.61579,0.84598 1.2592,1.6472 1.9319,2.3998 0.67266,0.75256 1.3743,1.4564 2.1062,2.1074 0.73191,0.65096 1.4944,1.249 2.2879,1.7902 1.0317,0.70362 2.0914,1.3806 3.1765,2.0314 1.0851,0.65082 2.1954,1.2759 3.3272,1.8756 1.1318,0.59976 2.2854,1.1739 3.4571,1.7244 1.1718,0.55042 2.3619,1.077 3.5668,1.5798 1.2049,0.50281 2.4249,0.98229 3.6562,1.4392 1.2314,0.45693 2.4744,0.8909 3.7254,1.3037 1.251,0.41277 2.5098,0.80398 3.7738,1.1743 1.264,0.37032 2.5329,0.71982 3.803,1.0495 2.5402,0.65928 5.0857,1.2389 7.61,1.7457 2.5243,0.50684 5.0269,0.94106 7.4812,1.3093 2.4543,0.36824 4.8602,0.67048 7.1904,0.91392 2.3303,0.24344 4.5855,0.42825 6.7377,0.56072 1.2403,0.0763 2.5118,0.12026 3.8115,0.13273 1.2997,0.0125 2.6274,-0.007 3.9802,-0.0562 1.3528,-0.0494 2.7307,-0.12875 4.1303,-0.2379 1.3997,-0.10915 2.8211,-0.24759 4.2614,-0.41449 1.4402,-0.16691 2.8993,-0.36229 4.3739,-0.58491 1.4745,-0.22262 2.9647,-0.47284 4.4672,-0.74913 1.5026,-0.2763 3.0177,-0.57867 4.542,-0.90661 1.5243,-0.32794 3.0579,-0.68148 4.5977,-1.059 1.5398,-0.37752 3.0853,-0.77902 4.6343,-1.2041 1.549,-0.4251 3.1009,-0.87353 4.6528,-1.3442 1.5519,-0.47063 3.1037,-0.96333 4.6523,-1.4774 1.5486,-0.51407 3.0942,-1.0496 4.6331,-1.6051 1.5389,-0.55557 3.0714,-1.1316 4.5943,-1.7266 1.523,-0.59498 3.0362,-1.209 4.537,-1.8413 1.5008,-0.63236 2.9893,-1.2828 4.4616,-1.9504 1.4723,-0.6677 2.9284,-1.3529 4.366,-2.0539 0.93866,-0.45771 1.8356,-0.97758 2.6917,-1.5551 0.85605,-0.57749 1.6713,-1.2123 2.4482,-1.901 0.77689,-0.68862 1.5153,-1.431 2.2165,-2.2221 0.70116,-0.79109 1.3654,-1.6307 1.9943,-2.5157 0.6289,-0.885 1.2223,-1.815 1.7823,-2.7851 0.56,-0.9701 1.0864,-1.9803 1.5809,-3.0269 0.49458,-1.0466 0.95712,-2.1295 1.3897,-3.244 0.43259,-1.1145 0.83513,-2.2609 1.2092,-3.4346 0.37405,-1.1737 0.71983,-2.3751 1.0388,-3.5994 0.31894,-1.2243 0.61122,-2.4716 0.87849,-3.7378 0.26727,-1.2662 0.50929,-2.5513 0.72832,-3.8508 0.21903,-1.2995 0.41518,-2.6133 0.58941,-3.9374 0.17423,-1.3241 0.32662,-2.6586 0.45949,-3.9987 0.13287,-1.3401 0.24587,-2.6856 0.34082,-4.033 0.18988,-2.6948 0.30732,-5.3956 0.36613,-8.0678 0.0588,-2.6722 0.0594,-5.3158 0.0146,-7.8963 -0.0448,-2.5804 -0.13503,-5.0978 -0.2559,-7.5172 -0.12086,-2.4194 -0.27259,-4.7409 -0.44205,-6.93 -0.03,-0.38787 -0.0657,-0.70778 -0.0967,-1.0871 z"
         fill="url(#linearGradient39456)"
         stroke-width="1.1518"
         style="fill:url(#linearGradient39456);paint-order:stroke markers fill"
         id="path34" />
      <path
         d="m 136.52,2.8069 c -33.229,0.027254 -64.129,17.075 -81.874,45.169 -9.8117,15.483 -15.032,33.43 -15.056,51.76 -3.2e-5,53.532 43.396,96.932 96.932,96.932 53.532,-2.5e-4 96.929,-43.396 96.929,-96.932 -0.0209,-16.325 -4.1648,-32.382 -12.047,-46.677 0.031,0.37935 0.0666,0.69939 0.0966,1.0873 0.16946,2.1891 0.32149,4.5103 0.44235,6.9296 0.12087,2.4194 0.21102,4.9368 0.2558,7.5172 0.0448,2.5804 0.0443,5.2239 -0.0145,7.8961 -0.0588,2.6722 -0.17649,5.3728 -0.36639,8.0676 -0.0949,1.3474 -0.20767,2.6932 -0.34054,4.0333 -0.13287,1.3401 -0.28516,2.6746 -0.45939,3.9986 -0.17422,1.324 -0.37059,2.6377 -0.58961,3.9372 -0.21903,1.2995 -0.46085,2.5847 -0.72813,3.851 -0.26728,1.2662 -0.55956,2.5134 -0.87848,3.7377 -0.31893,1.2243 -0.66463,2.4255 -1.0387,3.5993 -0.37404,1.1737 -0.77662,2.3204 -1.2092,3.4348 -0.43259,1.1145 -0.8955,2.1971 -1.3901,3.2438 -0.49458,1.0466 -1.0208,2.0571 -1.5808,3.0271 -0.55998,0.97008 -1.1534,1.8999 -1.7823,2.7847 -0.62885,0.88491 -1.293,1.7245 -1.9942,2.5156 -0.70114,0.79109 -1.4395,1.5334 -2.2164,2.222 -0.77686,0.6886 -1.5924,1.3237 -2.4484,1.9012 -0.85605,0.57747 -1.7526,1.0972 -2.6913,1.5549 -1.4376,0.70098 -2.8937,1.3864 -4.3661,2.0541 -1.4723,0.6677 -2.9609,1.3179 -4.4616,1.9502 -1.5008,0.63234 -3.0141,1.2462 -4.537,1.8412 -1.523,0.59499 -3.0551,1.1709 -4.5939,1.7265 -1.5389,0.55556 -3.0847,1.0909 -4.6333,1.605 -1.1623,0.38589 -4.8259,0.0335 -5.9906,0.39502 -4.3785,-0.83809 -6.601,-1.096 -10.459,-2.6564 -11.507,-4.6534 -14.059,-7.5477 -22.696,-7.5477 -9.1561,0 -22.294,2.7866 -29.937,6.5489 -4.0184,1.978 -8.1443,2.2767 -12.972,3.6729 -0.69831,-0.24246 -5.6782,-0.31159 -6.3698,-0.56824 -1.2314,-0.4569 -2.4511,-0.93637 -3.656,-1.4392 -1.2049,-0.50278 -2.3949,-1.0293 -3.5665,-1.5797 -1.1717,-0.5504 -2.3253,-1.1247 -3.457,-1.7244 -1.1318,-0.59975 -2.2423,-1.225 -3.3274,-1.8758 -1.0851,-0.65082 -2.1448,-1.3278 -3.1765,-2.0314 -0.79353,-0.54117 -1.5558,-1.1391 -2.2877,-1.79 -0.73191,-0.65097 -1.4337,-1.3548 -2.1063,-2.1073 -0.67264,-0.75257 -1.3159,-1.5538 -1.9316,-2.3998 -0.61578,-0.84597 -1.2034,-1.7368 -1.7647,-2.668 -0.56128,-0.93122 -1.0959,-1.9026 -1.605,-2.9109 -0.50916,-1.0083 -0.99371,-2.0533 -1.4531,-3.1305 -0.45942,-1.0772 -0.89431,-2.1869 -1.3064,-3.3247 -0.41206,-1.1378 -0.8008,-2.3043 -1.1679,-3.4948 -0.36708,-1.1905 -0.71217,-2.4046 -1.0366,-3.6396 -0.32446,-1.2349 -0.62838,-2.4904 -0.91259,-3.7615 -0.28421,-1.2711 -0.54895,-2.558 -0.79527,-3.857 -0.24632,-1.299 -0.47437,-2.6104 -0.68521,-3.9295 -0.42171,-2.638 -0.77514,-5.3077 -1.0692,-7.976 -0.29403,-2.6686 -0.52882,-5.336 -0.71416,-7.9694 -0.18534,-2.6335 -0.32086,-5.2326 -0.4165,-7.766 -0.09565,-2.5331 -0.15125,-4.9995 -0.17622,-7.367 -0.02498,-2.3674 -0.01947,-4.6357 0.0072,-6.7722 0.0259,-2.0706 0.07285,-4.0034 0.1297,-5.7964 1.3869,0.55977 2.8548,1.148 4.4606,1.7797 1.7923,0.70511 3.7099,1.449 5.7319,2.219 2.0219,0.76993 4.1486,1.5662 6.3571,2.3755 1.1043,0.4047 2.2289,0.81234 3.3718,1.2221 1.1429,0.40978 2.3036,0.82128 3.4798,1.233 1.1762,0.41171 2.3678,0.82356 3.5718,1.234 1.2041,0.41047 2.4212,0.81972 3.6478,1.2257 1.2266,0.40602 2.463,0.80872 3.7068,1.2071 1.2437,0.39843 2.4946,0.79263 3.7502,1.1803 1.2555,0.38766 2.5156,0.76884 3.7774,1.1426 1.2619,0.37369 2.5254,0.73948 3.7883,1.096 1.263,0.35658 2.5256,0.70447 3.7843,1.0408 1.2587,0.33628 2.5141,0.66129 3.7631,0.97408 1.249,0.31281 2.4914,0.613 3.7253,0.89915 1.2339,0.28617 2.4591,0.55808 3.6726,0.8144 1.2135,0.25634 2.4151,0.49704 3.6028,0.72037 1.1877,0.22334 2.3611,0.42933 3.5176,0.6165 1.1565,0.18716 2.2958,0.35549 3.4157,0.50331 0.55998,0.07391 1.1156,0.14271 1.6655,0.20619 0.54985,0.06348 1.0944,0.12202 1.6335,0.17466 0.53906,0.05265 1.0723,0.09965 1.5999,0.14107 0.52758,0.04142 1.0493,0.07717 1.5648,0.10697 0.5154,0.0298 1.0244,0.05353 1.527,0.07131 0.50259,0.01778 0.99866,0.02925 1.4877,0.03462 0.55697,0.0061 1.1221,0.0057 1.6944,-0.0016 0.57234,-0.0071 1.1519,-0.02085 1.7389,-0.04082 0.58697,-0.01998 1.181,-0.04615 1.7818,-0.07855 0.60081,-0.03241 1.2082,-0.07134 1.8221,-0.11575 0.61388,-0.04441 1.2346,-0.09386 1.8608,-0.14986 0.6262,-0.056 1.2577,-0.11784 1.8955,-0.185 0.63777,-0.06717 1.282,-0.14016 1.9306,-0.21807 0.64854,-0.07792 1.3015,-0.16134 1.9601,-0.24959 1.3172,-0.17649 2.6543,-0.37277 4.0071,-0.58806 1.3527,-0.21532 2.7209,-0.44942 4.1031,-0.70021 1.3821,-0.25079 2.7778,-0.51855 4.1833,-0.80149 1.4054,-0.28294 2.821,-0.58073 4.2436,-0.89243 1.4225,-0.31173 2.8519,-0.63692 4.2854,-0.97408 1.4336,-0.33718 2.8712,-0.68611 4.3098,-1.0454 1.4385,-0.35927 2.8776,-0.72884 4.315,-1.1069 1.4374,-0.37806 2.8731,-0.76511 4.3031,-1.1586 1.4301,-0.39348 2.8548,-0.79385 4.2716,-1.1994 1.4167,-0.40555 2.8252,-0.81612 4.2224,-1.2304 1.3971,-0.41428 2.7831,-0.83189 4.1547,-1.2516 1.3715,-0.41968 2.7286,-0.84174 4.0684,-1.2635 1.3398,-0.42174 2.6617,-0.84353 3.9634,-1.264 1.3019,-0.42044 2.5837,-0.83938 3.8417,-1.2552 2.5158,-0.83163 4.9371,-1.6507 7.2402,-2.4437 1.5137,-0.5212 2.8868,-1.0093 4.2912,-1.5043 -17.411,-29.614 -49.196,-47.799 -83.549,-47.802 z"
         fill="url(#linearGradient38060)"
         stroke-width="2.3036"
         style="fill:url(#linearGradient38060);paint-order:stroke markers fill"
         id="path36" />
      <path
         d="m 83.574,64.925 c 11.027,-9.3883 27.973,-3.5836 31.592,10.439 3.7302,14.455 1.7489,31.281 -1.6483,45.877 -3.1968,13.735 -33.395,12.886 -38.46,-0.27471 -5.6301,-14.631 -5.4984,-44.109 8.5161,-56.041 z"
         fill="#fefff0"
         stroke-width="1.1518"
         style="paint-order:stroke markers fill"
         id="path38" />
      <path
         d="m 182.57,63.749 c -11.027,-9.3883 -27.973,-3.5836 -31.592,10.439 -3.7302,14.455 -1.7489,31.281 1.6483,45.877 3.1968,13.735 33.395,12.886 38.46,-0.27472 5.6301,-14.631 5.4984,-44.109 -8.5161,-56.041 z"
         fill="#fefff0"
         stroke-width="1.1518"
         style="paint-order:stroke markers fill"
         id="path40" />
    </g>
    <path
       d="m 104.67,104.88584 c 0,12.441 -6.5834,19.23 -13.333,19.23 -6.7497,0 -12.758,-10.085 -12.758,-22.526 1e-6,-12.441 9.7466,-26.372 16.496,-26.372 6.7497,-3e-6 9.5948,17.228 9.5948,29.669 z"
       fill="#0a0a0a"
       stroke="#ffffff"
       stroke-width="0.29461"
       style="fill-rule:evenodd;paint-order:stroke markers fill"
       id="path44" />
    <path
       d="m 154.82,103.51584 c 0,12.441 6.5834,19.23 13.333,19.23 6.7497,0 12.758,-10.085 12.758,-22.526 0,-12.441 -9.7466,-26.372 -16.496,-26.372 -6.7497,-3e-6 -9.5948,17.228 -9.5948,29.669 z"
       fill="#0a0a0a"
       stroke="#ffffff"
       stroke-width="0.29461"
       style="fill-rule:evenodd;paint-order:stroke markers fill"
       id="path46" />
    <path
       d="m 60.682,41.82784 c 58.396,26.543 118.96,26.554 154.25,2.6864 6.2376,2.3164 12.568,15.452 8.2702,17.751 -46.748,25.003 -110.57,23.663 -169.52,-0.10673 -6.9995,-2.8225 0.35686,-15.27 7.0034,-20.33 z"
       fill="url(#linearGradient43307)"
       stroke="#000000"
       stroke-width="1.1518"
       style="fill:url(#linearGradient43307);fill-rule:evenodd;paint-order:stroke markers fill"
       id="path48" />
    <path
       d="m 82.66,61.16784 42.08,17.349 1.2621,12.747 -54.143,-20.572 z"
       stroke="#ffffff"
       stroke-width="0.26458"
       style="fill-rule:evenodd;paint-order:stroke markers fill"
       id="path56" />
    <path
       d="m 185.81,61.12784 -42.08,17.349 -1.2621,12.747 54.143,-20.572 z"
       stroke="#ffffff"
       stroke-width="0.26458"
       style="fill-rule:evenodd;paint-order:stroke markers fill"
       id="path58" />
  </g>
</svg>
