<?xml version="1.0" encoding="UTF-8" standalone="no"?>
<!-- Created with Inkscape (http://www.inkscape.org/) -->

<svg
   width="1000"
   height="1000"
   viewBox="0 0 264.58333 264.58334"
   version="1.1"
   id="svg5"
   sodipodi:docname="Dagger_Active_3.svg"
   inkscape:export-filename="D:\UnityProjects\Skill - Ninja\Assets\Resources\Dagger\Dagger_Active_1.png"
   inkscape:export-xdpi="96"
   inkscape:export-ydpi="96"
   inkscape:version="1.1.1 (3bf5ae0d25, 2021-09-20)"
   xmlns:inkscape="http://www.inkscape.org/namespaces/inkscape"
   xmlns:sodipodi="http://sodipodi.sourceforge.net/DTD/sodipodi-0.dtd"
   xmlns="http://www.w3.org/2000/svg"
   xmlns:svg="http://www.w3.org/2000/svg">
  <sodipodi:namedview
     id="namedview7"
     pagecolor="#ffffff"
     bordercolor="#666666"
     borderopacity="1.0"
     inkscape:pageshadow="2"
     inkscape:pageopacity="0.0"
     inkscape:pagecheckerboard="0"
     inkscape:document-units="mm"
     showgrid="false"
     units="px"
     inkscape:zoom="0.5"
     inkscape:cx="348"
     inkscape:cy="489"
     inkscape:window-width="1920"
     inkscape:window-height="1017"
     inkscape:window-x="1912"
     inkscape:window-y="-8"
     inkscape:window-maximized="1"
     inkscape:current-layer="layer1" />
  <defs
     id="defs2" />
  <g
     inkscape:label="Warstwa 1"
     inkscape:groupmode="layer"
     id="layer1">
    <path
       id="path974"
       style="fill:#000000;fill-opacity:1;fill-rule:evenodd;stroke:none;stroke-width:0.66988;paint-order:stroke markers fill"
       inkscape:transform-center-x="-6.2124729"
       inkscape:transform-center-y="-8.1628052"
       d="M 146.18326,-3.5257666 105.6386,58.40211 A 25.135414,25.135414 0 0 1 116.86181,83.445609 25.135414,25.135414 0 0 1 88.103806,104.33952 25.135414,25.135414 0 0 1 67.172901,76.98779 L 1.2141021,77.885093 43.095444,134.33497 a 25.135415,25.135415 0 0 1 19.714958,-5.6061 25.135415,25.135415 0 0 1 20.893912,28.758 25.135415,25.135415 0 0 1 -28.758003,20.89391 25.135415,25.135415 0 0 1 -4.719233,-1.53331 L 28.804134,245.7646 96.693691,219.83006 a 25.135416,25.135416 0 0 1 -2.69538,-15.70871 25.135416,25.135416 0 0 1 28.757999,-20.89391 25.135416,25.135416 0 0 1 20.89391,28.758 25.135416,25.135416 0 0 1 -8.36252,14.79339 l 55.53753,41.33027 -1.6838,-70.14345 a 25.135416,25.135416 0 0 1 -20.5192,-28.63639 25.135416,25.135416 0 0 1 28.75801,-20.89391 25.135416,25.135416 0 0 1 13.0944,6.3747 L 263.36923,114.03934 202.20559,95.93568 A 25.135415,25.135415 0 0 1 173.4616,116.78734 25.135415,25.135415 0 0 1 152.56769,88.029339 25.135415,25.135415 0 0 1 168.73977,68.669467 Z M 131.15278,113.30086 a 25.135415,25.135415 0 0 1 20.89391,28.758 25.135415,25.135415 0 0 1 -28.758,20.89392 25.135415,25.135415 0 0 1 -20.89391,-28.75801 25.135415,25.135415 0 0 1 28.758,-20.89391 z" />
  </g>
</svg>
